<?xml version="1.0" encoding="UTF-8"?>
<svg id="Layer_1" xmlns="http://www.w3.org/2000/svg" version="1.1" viewBox="0 0 60 61">
  <!-- Generator: Adobe Illustrator 29.5.1, SVG Export Plug-In . SVG Version: 2.1.0 Build 141)  -->
  <defs>
    <style>
      .st0 {
        fill-rule: evenodd;
      }

      .st0, .st1 {
        fill: #fff;
      }
    </style>
  </defs>
  <g>
    <path class="st1" d="M32.3,48.9h0Z"/>
    <path class="st1" d="M29.3,52.7h0Z"/>
    <path class="st1" d="M35.2,33h0Z"/>
    <path class="st1" d="M47.6,49.3c0-1.5-.2-3,0-4.6,0-1.1-.2-2.1-.8-3-.2-.3-.4-.7-.6-1-.7-1-1.5-1.8-2.4-2.6-1-.8-2-1.6-3.2-2.2-.4-.2-.7-.4-1-.7-.4-.5-.8-.9-1.3-1.3-.1-.1-.3-.2-.4-.4-.6-.6-.8-1.2-.5-2,.2-.4.4-.8.5-1.2,0-.1.1-.3.1-.4-.1-.4,0-.7,0-1.1.2-1.1.2-2.3.6-3.4,0-.2,0-.5.1-.8,0-.6.2-1.2.2-1.8s.2-1.1.4-1.7c.2-.5.3-1,.3-1.6,0-.3,0-.6.2-.9.2-.5.3-1.1.4-1.6,0-.5.2-.9.4-1.3,0-.1.2-.2.3-.3.1,0,.3-.1.4-.2,0-.2,0-.4.1-.5,0-.2.1-.3.2-.4.6-.6.8-1.4,1.2-2v-.2c0-.4.2-.7.2-1,.4-.6.4-1.3.4-2v-.5c0-.3-.2-.6-.3-.9-.2-.4-.2-.8,0-1.1.1-.2.2-.4.3-.6.1-.5,0-.9-.5-1.3-.2-.2-.5-.3-.8-.4-.5-.2-1-.4-1.5-.5-.9-.2-1.6-.5-2.4-1-1-.7-2.1-1.1-3.4-1.2-1.6-.2-3.2-.4-4.8-.5-.3,0-.5,0-.8-.1-.3,0-.5-.2-.8-.2s-.5.1-.8.2h-.3c-.6,0-1.2.3-1.6.7-.7.6-1.1,1.3-1.3,2.2,0,.5-.2,1-.3,1.6,0,.3,0,.6-.1.8,0,.3,0,.7.2,1,.1.2.3.4.3.6,0,.7.2,1.5,0,2.2-.1.3-.1.7-.2,1,0,.3,0,.5.1.7.2.3.2.6.1.9,0,.4-.1.8-.2,1.2,0,.8-.3,1.5-.7,2.2-.3.5-.4,1.1-.5,1.7-.3,2.1-.5,4.1-.8,6.2,0,.3,0,.7-.2,1-.3.8-.5,1.5-.8,2.3,0,.3-.2.6-.2.9-.1.7-.3,1.4-.5,2.2,0,.3-.2.6-.5.9-.2.2-.4.5-.6.8-.1.2-.3.4-.6.5-.4.2-.8.4-1.2.6-.5.4-1.1.6-1.7.9-.5.2-1,.4-1.6.7-.4.2-.8.4-1.2.6-1.2.7-2.4,1.5-3.4,2.5-.1.1-.2.2-.3.3-.8.6-1.5,1.3-1.9,2.2,0,.1-.2.2-.2.4-.3.3-.4.7-.6,1.1-.6,1.6-.8,3.2-.9,4.8v1.4c0,.5.1,1,.2,1.4.3,1.7,1.1,3.3,2.6,4.4.9.7,1.9,1.3,2.8,2,1.1.8,2.4,1.3,3.7,1.9,2.3,1.1,4.6,1.8,7.2,2.2.4,0,.9.1,1.3.2,1.4.3,2.8.4,4.3.3,1.2,0,2.4-.2,3.6-.3,1.7-.1,3.4-.4,5.1-1,.2,0,.4-.1.6-.1.5,0,.9-.1,1.4-.3s1-.3,1.4-.5c.7-.2,1.3-.5,1.9-.9.2-.1.3-.2.5-.3,1-.6,1.7-1.4,2.3-2.3.2-.3.4-.6.8-.8.8-.5,1.3-1.2,1.5-2.1.2-.8.2-1.6.2-2.4l.3-.2ZM37.2,30c-.5.2-1,.4-1.6.4h-1c-.8,0-1.6,0-2.3-.3-.6-.2-1.2-.2-1.8,0-.2,0-.4,0-.5.1-.4.1-.7,0-1-.3-.8-.7-1.7-1.1-2.8-1.3-.2,0-.3-.1-.5-.1v-.2c0-.7.4-1.4.7-2.1,1.1.3,2.1.5,3,.8.5.1,1,.2,1.5.3.8,0,1.6.1,2.4.4.3.1.6,0,1,0,.7,0,1.3,0,2,.2,0,.6-.3,1-.4,1.5.1.1.2,0,.3,0,0-.1.2-.3.2-.5s0-.3.1-.5c0-.3.3-.4.6-.4h.3s.1.1.1.2c0,.7-.1,1.4-.3,2.1v-.3ZM36.2,36.1h0c0-.2,0-.3.1-.4h0c0,.1,0,.3-.1.4ZM36.2,35.1c-.3.3-.5.6-.5,1-.3.2-.5.1-.7,0-.2,0-.3-.1-.5-.2-.4-.2-.8-.2-1.1.2,0,0-.1,0-.3.2-.1,0-.3,0-.5-.1-.6-.2-1.1-.4-1.7-.6-.3-.1-.6-.1-.9,0s-.6.3-.9.4c-.7,0-1.4-.2-2.2-.2v-.5c-.2.1-.4.3-.6.4-.3-.1-.6-.3-.8-.6.1-.1.3-.2.4-.3,0-.2-.2-.2-.3-.2-.3,0-.5.2-.8,0-.2-.1-.5-.2-.8-.3-.1-.4,0-.9.1-1.3.7,0,2.3,0,2.8.1.2,0,.5.1.7.3.4.2.8.4,1.2.7.7.4,1.5.7,2.4.8.5,0,1,.1,1.5.2.5,0,.9,0,1.2-.5.1-.2.2-.3.4-.4.5-.2.7-.6.9-1.1h-.3c.1-.5.5-.8.8-1.2q.1-.2.7-.2c-.2.9-.2,1.1-.8,1.9.1.2.3.4.5.6.2-.1.3-.3.5-.4.2.2.2.4.1.6-.1.2-.3.4-.4.6l-.1.1ZM26.5,32.5c.3,0,.6.1,1,.2.6.1,1.2,0,1.9,0,1-.2,1.9-.3,2.9-.2.6,0,1.2-.1,1.9-.3.3,0,.5-.1.8-.2h.2c-.1.3-.4.6-.6.8-.2.3-.3.5-.2.9-.4.3-.8.5-1.2.8-.8,0-1.6-.1-2.5-.3-.4,0-.8-.3-1.3-.4-.3-.1-.5-.2-.8-.4-.5-.3-1.1-.4-1.7-.4-.8,0-1.6-.3-2.4-.5-.1-.2,0-.3.1-.4.7,0,1.3.2,1.9.4ZM24.8,31.6c.1-.5.3-.9.4-1.4,0-.4.1-.9.4-1.3.5,0,.9,0,1.3.2.5.2,1,.4,1.5.8.2.1.4.3.6.4.3.2.6.3,1,.2.2,0,.4,0,.5-.1.6-.1,1.1-.1,1.7,0,.6.2,1.3.3,1.9.4h.5c-.2.4-.4.6-.7.7-.5.2-1,.3-1.6.2-1,0-2,0-2.9.3-.5.1-1,.2-1.5,0-.9-.2-1.9-.4-2.8-.6l-.1-.1-.2.3ZM34.7,31.4c.2-.5.4-.6.8-.6.1,0,.3,0,.5.1-.4.3-.8.4-1.3.5ZM38,25.4c-.1.6-.3,1.1-.5,1.7h-.4v-.3c-.2,0-.3,0-.3.2-.1.3-.4.4-.7.3-.4,0-.7,0-1.1-.1h-1.4c-.5,0-.9-.3-1.4-.3-1.7-.1-3.3-.6-5-1-.5-.1-1-.3-1.4-.6-.1-.4,0-.7,0-1.1s-.2-.7,0-1.1h.3c.6.3,1.2.5,1.9.8.4.1.7.3,1,.5.5.3,1,.4,1.6.5h1c.5,0,1.1.1,1.6.4.3.1.6.2.9,0,1-.4,2-.4,3.1-.3h.7v.3l.1.1ZM38.7,21.1c-.2.5-.3,1.1-.3,1.7,0,.5-.1.9-.2,1.4-.3.2-.6.3-1,.2-.5,0-1.1,0-1.6.2-.4.2-.9.2-1.3.3-.3,0-.5.1-.8,0-.5-.2-1-.2-1.6-.3h-.6c-.7,0-1.3-.3-1.9-.6-.5-.3-1-.5-1.5-.6-.7-.2-1.3-.5-1.9-.8.3-1.1.4-2.2.4-3.3.5,0,.9,0,1.4.1.8.2,1.6.3,2.4.5.6.1,1.1.4,1.6.7.3.2.7.4,1.2.4s1,.3,1.5.3c.5.1,1,.3,1.5.5,0,.1-.1.2-.1.3.2,0,.4-.2.6-.3h.2v.2c-.3.5-.6,1-.9,1.5,0,0-.1.2-.2.3v.2h.2c.1-.2.3-.4.4-.6.3-.5.5-1,.8-1.5q.2,0,.3.1h.2c.3-.5.6-1,1-1.5v.6h.2ZM25.4,12.7c.3.1.6.3.9.4.3,0,.6.1.9.4-.2.2-.4.4-.6.6-.1.1-.2.3-.3.4-.2.1-.5,0-.7,0-.3,0-.4-.3-.5-.5,0-.4,0-.8.3-1.2v-.1ZM25.1,11.3c-.1-.2,0-.5,0-.8.2.2.3.3.4.4.4.4.7,1,1.3,1.3h0v.2s-.1.1-.2.1c-.6,0-1.2-.4-1.4-.9,0-.2-.1-.3-.2-.4l.1.1ZM27.2,14.4v.6q-.3-.2,0-.6ZM39.8,15.9v.3c-.2.6-.5.8-1.1.7h-.8c-.8.2-1.5,0-2.2,0-.4,0-.8,0-1.1-.3-.3-.1-.6-.1-.9,0-.3,0-.5.1-.8.2h-1.3c-.4,0-.7-.2-.9-.4-.2.2,0,.4,0,.5.1,0,.3.1.4.2.6,0,1.2.2,1.9,0,.5-.1,1,0,1.5.2.2,0,.4.1.6.2.7,0,1.3.1,2,.2h2.5v.6c-.2.5-.3,1-.6,1.5-.2.3-.3.6-.4.9-.1.3-.3.5-.6.5-.1,0-.3,0-.4.2-.2.1-.3,0-.5,0h0c-.4,0-.9.1-1.3-.1-.1,0-.3,0-.5-.1-.2,0-.5-.1-.7-.2-.4,0-.8-.2-1.2-.3-.4,0-.7-.2-1-.3-.7-.4-1.4-.7-2.1-.8-1-.2-2-.5-3-.6-.1,0-.2,0-.4-.1v-.5c0-.6.2-1.3,0-1.9,0-.3,0-.6.2-.8.4.1.7.3.9.6.3.5.8.6,1.4.6q0-.2-.2-.2c-.4,0-.7-.3-.9-.6,0-.2-.3-.3-.5-.4.1-.4.3-.8.5-1.1.8.3,1.5.6,2.2.9.8.3,1.6.4,2.4.3h1.1c.5,0,.9.1,1.4.2h.4c.9.4,1.9.4,2.9.2.4,0,.8-.1,1.2-.2.1,0,.3.1.3.3l-.4-.4ZM38.2,14.7c.3,0,.5,0,.8.3-1,.3-1.9.4-2.8.3h-.2c-.6-.3-1.3-.3-1.9-.4-.6,0-1.2-.1-1.9,0-.7,0-1.4,0-2-.3-.6-.2-1.2-.4-1.8-.8-.2-.1-.4-.3-.5-.5s-.3-.4-.4-.6v-.1h.2s.2.1.2.2c.6.7.8.8,1.8,1.2.3-.1.7-.2,1-.3.2,0,.3.1.4.2.4.3.9.3,1.4.3h.6c.4,0,.8,0,1.2.2s.9.3,1.4.2c.6-.1,1.2,0,1.9.2,0,.1,0,.3-.1.4.3,0,.5,0,.8-.1l-.1-.4ZM41.4,13h-.2c0,.1-.1.2-.2.4,0,0-.2,0-.2.1,0,0-.2,0-.2.1s0,.3-.1.4h-.2.1c0-.1,0-.3.1-.4,0,0,.2,0,.2-.1,0,0,.2,0,.2-.1s.1-.2.2-.4h.3ZM29.4,1.7c1.8.2,3.5.4,5.3.6,1.1.1,2.2.5,3.1,1.1.8.5,1.6.8,2.6,1,.6.1,1.1.3,1.6.5.1,0,.3.1.4.2.5.2.7.5.4,1.1,0,.2-.2.3-.3.4-.2.5-.2.9,0,1.4v.1c.4.4.4.9.2,1.4-.1.4-.2.9-.5,1.3-.3.4-.5.8-.5,1.2,0,0,0,.1-.1.1h0c0-.3.2-.7.1-1h-.2c-.2.6-.6,1.1-.8,1.7-.2.6-.7.9-1.2,1.2-.2.1-.4.1-.7,0-.8-.3-1.7-.5-2.6-.4h-1.7c-.5-.2-1-.2-1.5-.1-.5,0-1,.1-1.5-.1h-.6c-.5,0-.9-.2-1.1-.7l-.1-.1h0c-.3.1-.1.4-.4.6-.4-.2-.6-.5-.8-.8,0-.4.5-.3.7-.6.3-1,.7-2,.8-3,0-.1-.3-.1-.3-.3,0-.4.2-.8.3-1.2.1-.5.4-.8,1-.9h.3c.5-.1.9-.3,1.2-.7,0,0,.1,0,.2-.1.2,0,.2.1.3.3.2.3.6.4,1,.3-.2-.2-.3-.3-.4-.4,0-.1-.1-.3-.2-.5-.2-.3-.5-.4-.8-.2-.1,0-.2.2-.4.2-.1,0-.3.1-.4.1h-.3c-.1,0-.2,0-.3.2-.3-.2-.4-.5-.6-.8,0-.2.3-.5-.1-.7,0,0-.1-.1-.2-.2,0-.6-.5-1.1-.8-1.6v-.2c0-.1.2-.1.3-.1l-.4-.3ZM24.9,6.2c0-.2,0-.4.1-.7.1-.5.2-1,.3-1.6.1-.8.5-1.4,1.1-1.9.5-.5,1.1-.7,1.9-.5.2.7.8,1.2.9,2-.4,0-.8.1-1.3.1h-.4v.2c.2,0,.3.1.5.1h1.1c.3.2.2.5.5.6s.4.5.5.8c-.1.1-.3.2-.4.3-.4.3-.6.7-.7,1.2,0,.4-.2.8-.3,1.1-.2.6-.2,1.2-.2,1.8v.5c0,.3-.2.6-.5.7-.3,0-.5.2-.8.3-.2-.1-.3-.2-.4-.3-.3-.3-.6-.6-.8-1-.3-.4-.5-.8-.5-1.2v-.8c0-.5,0-.9-.3-1.3-.1-.2-.2-.4-.1-.6l-.2.2ZM23.6,20.3c.1-1.1.3-2.1.4-3.2,0-.2,0-.3.2-.5.2-.5.5-1.1.8-1.7h1v.3c0,.5-.3,2.3-.4,2.8-.5,0-.7-.4-1.1-.5-.2.1-.1.3,0,.4.2.2.4.3.6.5.2.1.5.3.7.4.3.9,0,1.7,0,2.5,0,.3-.1.6-.4.9h-.2c-.5-.4-.9-.8-1.4-1.2-.2-.2-.2-.4-.2-.6v-.1ZM23.3,22.5c0-.3,0-.7.2-1,.3,0,.4.3.6.4.2.2.4.3.6.5.2.1.4.2.6.4v2.1c-.2-.1-.4-.2-.6-.3-.3-.2-.5-.4-.8-.6-.9-.8-.7-.7-.6-1.5ZM22.8,25.3c.2-.4.2-.8.4-1.2.4.1.6.4.8.6.3.2.6.4.9.6s.6.4.9.6v.5c-.2.6-.5,1.1-.8,1.8-.1,0-.3,0-.4-.2-.7-.4-1.2-.9-1.7-1.5-.3-.4-.3-.8-.2-1.2h.1ZM21.7,29.7c.1-.6.2-1.2.3-1.8,0-.4.2-.7.4-1.1l.2-.1c.6.8,1.4,1.4,2.4,1.9v.4c0,.5-.2,1-.2,1.5,0,.4-.1.7-.4.9-.5,0-1-.2-1.5-.4-.4-.1-.6-.4-.9-.7-.2-.2-.2-.4-.2-.6h-.1ZM23.9,32.1c0,.2-.2.3-.3.3-.2,0-.3-.1-.5-.2-.2-.1-.3-.3-.3-.5.3,0,.6,0,.9.2.1,0,.2.1.1.3l.1-.1ZM21.3,31.9c0-.3,0-.7.1-1,.2-.1.3,0,.3,0l.4.4c.2,1.1.3,1.1,1.4,1.6,0,.3,0,.7-.1,1.1-.7,0-1.2-.4-1.7-.8,0-.3-.4-.4-.4-.7v-.7.1ZM39,57.7h0ZM37.9,58c-.5.1-1,.2-1.5.3v-.3h0s-.2,0-.2.1c-.1.3-.3.5-.7.5-.6,0-1.2.2-1.8.4-.3,0-.5,0-.6-.2h0c-.3.3-.7.4-1.1.4-1.2.1-2.4.2-3.7.3-.9,0-1.9,0-2.8-.1-1.8-.3-3.6-.5-5.4-1-1.3-.3-2.5-.7-3.7-1.3-.6-.3-1.3-.6-1.9-.9-1-.5-2-1.1-3-1.7-.5-.4-1-.8-1.6-1.1-.5-.5-1.2-1-1.6-1.6-.6-1-1.1-1.9-1.2-3.1v-.3c-.2-1-.2-2.1,0-3.1,0-.4.1-.9.2-1.3,0-.8.3-1.6.6-2.3.5-1.1,1.2-2.2,2.2-3,.4-.3.7-.6,1.1-.9,1.3-1.1,2.6-1.9,4.2-2.6.4-.2.9-.4,1.3-.6.6-.3,1.2-.6,1.8-1,.4-.3.8-.6,1.3-.6.1,0,.2-.1.4-.2.6.2.8.7,1.2,1.1-.2.2-.5.2-.7.2-.5,0-.9.2-1.4.4-.2.1-.4.2-.7.3-.6.2-1.1.6-1.5,1-.1.2-.3.3-.4.4-.3.2-.6.4-.9.6-.8.5-1.6,1.1-2.2,1.8-.9.9-1.7,1.7-2.7,2.5-.3.3-.5.5-.6.9v.2c-.6,1-.7,2.1-.8,3.3h0c0,.6,0,.7.7.7h.2c.3.2.3.5.3.8q.2,0,.3-.2v-.2c-.2-.5,0-.7.4-1s.8-.7,1.2-1.1c0,0,.1-.2.2-.3-.2-.1-.3,0-.3,0-.4.4-.9.7-1.4,1h-.5c.2-.5.6-.9.8-1.3,0-.2-.2-.2-.3,0-.2.1-.3.3-.5.5-.1-.2,0-.3.1-.4.8-.8,1.7-1.5,2.5-2.3.3-.2.5-.5.8-.7v-.1h-.2l-.1.1c-.9.7-1.7,1.4-2.6,2.1h-.2v-.2c.3-.6.7-1.2,1.2-1.8.2-.3.5-.5.8-.6h0c1.1-.9,2.2-1.6,3.2-2.6v-.2h-.2c-.4.2-.6.6-1.1.7h-.4.2s0-.1.1-.2c.2-.4.6-.6,1-.8.5-.3.9-.6,1.3-.9.7-.4,1.3-.8,2-1.2.4-.2.7-.4,1.1-.6.5-.3,1-.6,1.7-.5.6-.2,1,0,1.6.3,0,.1,0,.2-.1.3-.2.3-.4.6-.6.9-.4.6-.8,1.2-1,1.8-.3.6-.5,1.3-.8,1.9-.4,1-.9,2.1-1.2,3.2-.4,1.2-.8,2.5-1.3,3.7-.2.6-.3,1.3-.4,2v.4c0,.2.2.3.5.2,0,0,.1,0,.2-.1.1.2,0,.3,0,.4-.1.3-.3.7-.4,1v.2h.2c.4,0,.6-.3.7-.7h-.3c.3-.8.9-1.4,1.3-2.3-.6.3-.7.7-1.1.9-.2,0-.1-.2-.1-.3.1-.5.3-.9.6-1.3.4-.5.7-1.1,1.1-1.6,0,0,.1-.2,0-.3-.7.6-1.1,1.4-1.7,2.1-.2-.1,0-.3,0-.4.3-.9.6-1.8.9-2.7.2-.6.6-1.2,1-1.7.1-.2.3-.3.3-.6-.2.1-.4.3-.6.4,0-.5.1-.8.4-1.2.2-.2.4-.4.5-.7v-.3s-.2-.1-.3-.2c.3-.8.6-1.6.9-2.4.1-.3.3-.6.4-.8.3-.5.6-1,.9-1.5.1-.2.2-.4.5-.3,0,.4,0,.8-.2,1.2-.2.7-.5,1.3-.6,2,0,.1-.1.3-.2.4v.2c0,.8-.2,1.6,0,2.4.2,1.3,0,2.7.1,4,0,.7,0,1.5.2,2.2,0,.4.2.7.3,1.1.1.3.2.6,0,1v.3h.2c.3-.2.4-.4.4-.7,0-.6.2-1.1.5-1.6s.5-.9.7-1.5h-.2c-.4.6-.7,1.2-1.1,1.8-.2,0-.2-.1-.2-.2-.2-2.7,0-5.5.2-8.2,0-.2,0-.4.1-.6.2-.4.3-.8.3-1.2,0-.6.2-1.2.5-1.7,0-.2,0-.4.2-.6.3,0,.5.2.8.3v.4c.9-.5,1.2-.5,2-.3,0,.3-.3.5-.5.7-.3.4-.4.4-.3.7.4-.2.5-.7.9-.9.4-.1.6.1.9.3.5-.3.9-.9,1.7-.8v.3c-.4.7-.4,1.4-.1,2.1,0,.2.1.3.2.5.2.6.4,1.2.4,1.9,0,.9.1,1.7.2,2.6,0,.3,0,.6-.2.8s-.4.5-.6.7c-.4.4-.7.8-1,1.2,0,.2.2.1.3,0l.5-.5c.3-.4.6-.8.9-1.1.2,0,.3,0,.2.2v1.1c.1.4,0,.8,0,1.3,0,.9-.2,1.9-.5,2.7,0,.2-.2.4-.3.6-.3.6-.7,1-1.4,1.1-.1,0-.2,0-.4.1.2.1.4.2.6.3,0,.2,0,.4-.1.5.1,0,.2,0,.3-.1.2-.3.5-.5.8-.7.4-.2.7-.5.9-.9.2-.6.6-1.1.9-1.6,0-.1,0-.2.1-.4-.1,0-.3.2-.4.2v-.1c.3-1.6.3-3.3.1-4.9,0-.4,0-.8.3-1.1v-.2h0c-.1,0-.2.1-.4.2v-1.1c0-1.2-.3-2.3-.8-3.4-.3-.6-.4-1.2.1-1.8h.2c.6.6,1.3,1.3,1.7,2.1.3.5.6,1,.9,1.5.7,1.2,1.4,2.4,1.9,3.7.1.3.1.6.3.9.2.3.2.5.3.8.4,1.5.8,2.9.9,4.5v.8c.1.8,0,1.6,0,2.4v1.7c.3-.1.5-.3.8-.4.3-.2.5-.4.7-.6.2-.2.5-.4.7-.6l.6-.6c.2-.2.4-.5.6-.7.2-.2.3-.5.7-.6,0,.6-.2,1.1-.5,1.6-.1.1-.2.3-.1.5v.2c-.2.7-.4,1.5-.7,2.2,0,.2-.3.4-.5.6-.5.5-1.1,1-1.7,1.5l-.1.8ZM44.3,54.6c-.4.8-1,1.4-1.8,1.8-.4.2-.7.4-1.1.6-.2.1-.4.3-.7.3.1-.3.3-.5.6-.5.4-.1.7-.3,1-.6.4-.3.7-.6,1-.9.2-.4.6-.6,1-.9v.3-.1ZM45.1,53.4c0-.2,0-.4.3-.4,0,.2-.1.4-.3.4ZM45.9,52.3h-.1v-.2h-.1c-.4.5-.7,1-1.1,1.4-.8.8-1.6,1.7-2.5,2.4-.2.1-.4.3-.6.5-.3.2-.6.3-.7.7,0,.2-.4.3-.8.4v-.2c.4-.5.8-.9,1.1-1.4,0,0,.1-.2.2-.2.6-.2.8-.6,1.2-1,.2-.1.4-.3.5-.5s.4,0,.5-.2h0v-.1q0-.3.5-.5c0,.3-.3.4-.4.6h0c.3,0,.5-.2.7-.4s.3-.4.4-.6c.4-.8.7-1.6,1.1-2.4v-.3h0s-.1-.2,0-.3c0-.1.1-.3.2-.4v-1.1c.2-.9.3-1.8.4-2.8v-.5c-.1,0-.2.1-.2.2,0,.2,0,.3-.1.5,0,.5-.3,1-.5,1.4-.4.7-.8,1.3-1.1,2v.3c.5-.3.7-.8,1-1.2,0,0,.1.1,0,.2-.1.9-.3,1.8-.7,2.6,0,.2-.2.5-.4.7-.8.8-1.5,1.6-2.3,2.5-.2.2-.4.3-.6.4-.1,0-.3.1-.5.2.1-.5.3-.9.4-1.4.2-.5.3-1,.5-1.5.1-.5.3-1,.2-1.6v-.1h-.2c-.6.9-1.5,1.5-2.2,2.4-.3.4-.7.6-1.2.9-.2,0-.2-.2-.2-.3,0-.5,0-1.1.1-1.6,0-.3.2-.5.3-.7.6-.9,1.3-1.8,1.9-2.8v-.3c-.4.3-.5.6-.8.9-.2.3-.5.7-.7,1s-.4.6-.8.9c0,0,0-.2-.1-.2v-.9c0-.6-.1-1.1-.2-1.7,0-.3,0-.5.1-.8.2-.4.4-.9.4-1.4-.3,0-.2.3-.3.5s-.2.3-.3.5c0-.1-.2-.2-.2-.2,0-.1,0-.2-.1-.3-.6-2.4-1.7-4.6-3-6.8-.2-.4-.5-.8-.7-1.2-.3-.5-.7-1.1-1.1-1.5,0,0,0-.1-.1-.2h.1c.5.3,1,.2,1.5-.1,0,0,.1,0,.2-.1.5,0,1,.2,1.4.2.5,0,.9-.3,1.3-.5.2,0,.3.2.4.3.2.2.4.3.6.5,1.1,1.3,2.2,2.6,3.1,4.1,0,0,0,.2.1.2,0,0-.1.2-.2.3v.2c.4.5.7,1,1.1,1.6.1.2.3.3.4.4h.3c.2,0,.2-.2.2-.3v-.3c-.7-1.6-1.7-3.2-2.8-4.6-.5-.6-1-1.2-1.5-1.8-.2-.3-.5-.5-.8-.8-.4-.3-.5-.7-.4-1.1v-.3h.3c.9.8,1.8,1.6,2.9,2.2,1.6,1,3.1,2.2,4.2,3.6.5.6.9,1.4,1.3,2.1.3.6.4,1.2.4,1.9v4.6c0,1.5,0,1.8-.8,3.1l-.1.3Z"/>
    <path class="st1" d="M21.2,42h0Z"/>
    <path class="st1" d="M35.9,22h0Z"/>
    <path class="st1" d="M27,35.2h0Z"/>
  </g>
  <path class="st0" d="M19.1,54.4v.3c.2,0,.4-.1.6-.2.2.4-.3.4-.3.6s.1.2.3.3c.4.2.8.4,1.2.7h.5c.4-.3.8-.7,1.2-1,.1,0,.2-.2.4-.2v.2c-.8.8-1.6,1.5-2.4,2.3,0,0-.2,0-.2.1-.1-.3,0-.4.2-.5.1-.2.3-.3.4-.5-.6-.4-1.2-.7-1.7-1h-.3c-.2,0-.3.2-.5,0l.2-.4c-.1-.4-.6-.5-.8-.8,0-.1.2,0,.3,0h0c.1.2.4.4.6.6.2-.1.3-.2.4-.3h0l-.1-.2Z"/>
  <path class="st0" d="M18.1,54.1c-.1-.2-.2-.5,0-.7,0-.2.1-.4.2-.6.4-1.1,1.1-2.1,1.8-3,.2.1.1.2,0,.3-.3.5-.6,1-.9,1.6-.4.8-.8,1.6-.9,2.4,0,.1-.2.1-.3.1h0l.1-.1Z"/>
  <path class="st0" d="M24.6,46.3c-.1-.2,0-.4,0-.6.1-.3.2-.5.4-.7.6-.9,1.3-1.8,1.9-2.7l.2-.1v.2c-.3.4-.5.8-.8,1.2-.6.8-1.1,1.6-1.6,2.5l-.1.1v.1Z"/>
  <path class="st0" d="M13.1,54.1s-.1.1-.2.1c0,0-.2,0-.2-.1s-.1-.3-.1-.4v-.9c0-.3,0-.6.1-.9-.1-.1-.3-.2-.3-.3,0-.3.1-.5.4-.6.2.1.3.3.2.6,0,.4,0,.8-.1,1.2v.8c0,.2,0,.4.3.5h-.1Z"/>
  <path class="st0" d="M11.2,51.3h.2v.2c0,.8.2,1.4.5,2.1.2.3.3.5.3.9h-.2c-.3-.7-.8-1.4-.9-2.2,0-.4,0-.8.1-1.1v.1Z"/>
  <path class="st0" d="M11.5,49.2c0,.7-.2,1.3-.6,1.9,0,0-.2.2-.3,0-.1,0-.2-.2-.1-.3.2-.6.4-1.2.8-1.6,0,0,.1,0,.2,0Z"/>
  <path class="st0" d="M25.9,58.3c-.4.4-.8.5-1.3.7h-.4c.4-.7.8-1.2,1.5-1.7v.3c-.2.3-.4.6-.5.9h.7v-.2Z"/>
  <path class="st0" d="M14.3,52.4c.2.1.2.3.2.5.1.5.2.9.3,1.4,0,.3.3.3.5.4,0,.2-.1.2-.3.3-.2,0-.3,0-.4-.2,0,0,0-.1-.1-.2-.1-.6-.3-1.3-.3-1.9v-.2l.1-.1Z"/>
  <path class="st0" d="M37.5,56.8c-.5.3-1,.7-1.4,1.1-.1,0-.2,0-.3-.1.1-.2.3-.3.5-.5.5-.4,1-.8,1.5-1.2,0,0,.2-.1.3,0v.3h0s-.1,0-.2.2h0s-.1,0-.2.1h0s-.1,0-.2.1h0Z"/>
  <path class="st0" d="M31,46.9v.4c-.2.4-.5.8-.8,1.2-.2.3-.5.6-.5,1h-.2v-.3c0-.2.2-.4.3-.5.2-.3.4-.5.6-.8s.4-.5.7-.9l-.1-.1Z"/>
  <path class="st0" d="M31.1,55.3c-.9.7-1.7,1.5-2.7,2v-.2c.8-.7,1.7-1.3,2.6-1.8h.2-.1Z"/>
  <path class="st0" d="M10.4,53.3c-.6-.4-.7-.8-.9-1.2-.3-.8-.3-1,0-2,.2.3,0,.5,0,.7,0,.3,0,.6.1.8,0,.2.2.5.3.7,0,.2.2.4.4.8l.1.2Z"/>
  <path class="st0" d="M23.2,56.4c-.2.2-.4.5-.6.7s-.5.5-.5.8h-.2s-.1-.1-.1-.2c0-.2,0-.3.2-.5.3-.4.7-.8,1.3-.9l-.1.1Z"/>
  <path class="st0" d="M28,58.2c-.2.3-.5.4-.9.5-.1,0-.3,0-.3-.2s.1-.3.2-.4h.2c.2.3.4.1.6,0h.2v.1Z"/>
  <path class="st0" d="M25.3,49.3c-.2.6-.4,1-.7,1.4h-.2c.2-.6.5-1,1-1.4h-.1Z"/>
  <path class="st0" d="M29.2,58.2c.4-.3.7-.5,1.2-.6,0,0,.1,0,.2.1v.1c-.4.2-.8.4-1.3.4h-.1Z"/>
  <path class="st0" d="M14.1,50.8c0,.5-.4.9-.6,1.3h-.1v-.1c.1-.4.4-.8.7-1.2h.2-.2Z"/>
  <path class="st0" d="M25.2,42.5c-.1.4-.3.9-.4,1.3,0,0-.2-.1-.2-.2,0-.4.2-.8.5-1.1h.1Z"/>
  <path class="st0" d="M38,56.4h.3c-.3.3-.7.5-1.1.7h0v-.3h0s.1,0,.2-.1h0s.1,0,.2-.1h0s.1,0,.2-.1h0l.2-.1Z"/>
  <path class="st0" d="M34,58.3c.3-.4.7-.7,1.2-.9h0c-.4.6-.6.7-1.2.9h0Z"/>
  <path class="st0" d="M33.7,57.4c0,.4-.4.6-.7.9.1-.4.2-.5.8-.8h0l-.1-.1Z"/>
  <path class="st0" d="M35.4,57.3c0-.3.3-.5.6-.6h0c0,.3-.3.5-.6.6h0Z"/>
  <path class="st0" d="M30.9,54c0,.3-.2.4-.5.5v-.2c.1-.1.2-.3.5-.3h0Z"/>
  <path class="st0" d="M37,57.5c-.1.3-.3.5-.6.7h0c.1-.3.4-.4.6-.6h0v-.1Z"/>
  <path class="st0" d="M9.1,45.2s0,.2-.1.2h-.1v-.2s0-.1.2-.2c0,0,.1,0,.2.1l-.2.1Z"/>
  <path class="st0" d="M32.3,42.8s.1-.2.2-.3h0v.1l-.2.2h0Z"/>
  <path class="st0" d="M19.4,53.8c0,.2,0,.5-.3.6h0c0-.2,0-.5.3-.6h0Z"/>
  <path class="st0" d="M33.8,57.4c0-.2.2-.4.4-.4h0c-.1.2-.2.4-.4.4h0Z"/>
  <path class="st0" d="M33.6,58.6c-.2.2-.4.3-.6.2h0c.2,0,.4-.3.6-.2h0Z"/>
  <path class="st0" d="M33.4,41.5l.1-.1h.1l-.1.1h-.2.1Z"/>
  <path class="st0" d="M17.1,56.3v-.1h.2v.1h-.2Z"/>
  <path class="st0" d="M36,56.7v-.2h0v.1h-.2l.2.1Z"/>
  <path class="st0" d="M19.4,53.8v-.3h0v.1s-.1.1-.2.2h.2Z"/>
  <path class="st0" d="M31.1,53.9v-.2h0v.1h-.2l.2.1Z"/>
  <path class="st0" d="M25.2,42.5v-.2h.1s0,.1-.1.2h0Z"/>
  <path class="st0" d="M25.8,58.2c.1-.1.3,0,.4,0h0c-.1,0-.3,0-.4.1h0v-.1Z"/>
  <path class="st0" d="M14.1,50.8v-.1c.1.1,0,0,0,.1h0Z"/>
  <path class="st0" d="M19.3,49.8c0,.1,0,.3-.2.3h0c0-.1,0-.3.2-.3h0Z"/>
  <path class="st0" d="M32.3,48.9v-.1.1h0Z"/>
  <path class="st0" d="M25.6,45.8s.1-.2.2-.3h0s-.1.2-.2.3h0Z"/>
  <polygon class="st0" points="26.2 58.2 26.3 58.1 26.3 58.1 26.2 58.2"/>
  <path class="st0" d="M33.8,58.4l-.2.2h0c0-.1,0-.2.2-.1h0v-.1Z"/>
  <path class="st0" d="M33.8,58.5c0-.1,0-.2.2-.2h0c0,.1,0,.2-.2.1h0v.1Z"/>
  <path class="st0" d="M35.4,57.3c0,.1,0,.2-.2.1h0c0-.1,0-.2.2-.1h0Z"/>
  <polygon class="st0" points="33.4 41.5 33.4 41.5 33.4 41.5 33.4 41.5"/>
  <path class="st0" d="M37,57.5s.1,0,.2-.1h0s-.1,0-.2.1h0Z"/>
  <path class="st0" d="M37.2,57.3s.2-.1.2-.2h0s-.2,0-.2.2h0Z"/>
  <polygon class="st0" points="34.2 57 34.2 57 34.2 57 34.2 57"/>
  <polygon class="st0" points="34.6 56.5 34.5 56.5 34.6 56.5 34.6 56.5"/>
  <path class="st0" d="M34.8,56.4s-.2,0-.3.1h0s.2,0,.2-.1h.1Z"/>
  <polygon class="st0" points="13.2 54.1 13.2 54.1 13.1 54.1 13.2 54.1"/>
  <polygon class="st0" points="34.8 56.4 34.8 56.3 34.8 56.4 34.8 56.4"/>
  <path class="st0" d="M31.1,55.3s.2,0,.2-.1h0s-.2,0-.2.1h0Z"/>
  <polygon class="st0" points="31.4 55.2 31.4 55.1 31.4 55.2 31.4 55.2"/>
  <path class="st0" d="M39,55h-.2v-.1h0l.2.1Z"/>
  <path class="st0" d="M38.9,54.9s.1-.1.2,0h0l-.2.2h0v-.2Z"/>
  <path class="st0" d="M30.9,54c0-.1,0-.2.2-.1h0s0,.2-.2.1h0Z"/>
  <path class="st0" d="M39.2,54.8h0Z"/>
  <polygon class="st0" points="29.3 52.6 29.3 52.7 29.3 52.7 29.3 52.6"/>
  <polygon class="st0" points="19.3 49.8 19.4 49.8 19.3 49.8 19.3 49.8"/>
  <polygon class="st0" points="25.6 45.8 25.6 45.8 25.6 45.8 25.6 45.8"/>
  <polygon class="st0" points="25.8 45.5 25.9 45.4 25.9 45.5 25.8 45.5"/>
  <path class="st0" d="M21.2,42h0Z"/>
  <polygon class="st0" points="33 42 33 42 33 42 33 42"/>
  <polygon class="st0" points="33 42 33 42 33 42 33 42"/>
  <path class="st0" d="M43.8,48.5c-.2,0-.2-.1-.2-.2,0-.5.2-1,.3-1.5.1,0,.3,0,.3-.1,0-.3.2-.6.3-.9,0-.2.1-.4.2-.6,0,0,.1-.1.1,0,0,0,.2,0,.2.1,0,.5,0,.9-.2,1.3-.3.6-.6,1.3-.9,1.9l-.1.1v-.1Z"/>
  <path class="st0" d="M38,39.6v.2c0,.2,0,.3-.2.5-.4.7-.7,1.3-1,2l-.2.2v-.3c.2-1,.9-1.8,1.5-2.7l-.1.1Z"/>
  <path class="st0" d="M41.4,54.4c.4-.6.8-1.1,1.3-1.5h.2v.1c-.4.4-.7.8-1.1,1.2,0,0-.2,0-.4.1v.1Z"/>
  <path class="st0" d="M45.5,50.4h0Z"/>
  <path class="st0" d="M40.1,7.9c.3-.2.6-.4.9-.7h.2v.1s0,.2-.1.2c-.6.5-1.1.9-1.7,1.4-.1.1-.2.2-.5.2v-.7h-.2c-.2,0-.4,0-.5-.1-.1-.2-.1-.4,0-.6s.2-.5.4-.7c-.2,0-.3-.1-.5-.2-.1,0-.2-.2-.3-.2-.2,0-.4.1-.6.2h0c0-.2,0-.5.2-.8-.4-.3-.8-.1-1.1,0-.4.2-.7.2-1.1.2h-.2c-.3,0-.4-.2-.4-.5,0-.2.2-.3.4-.3.6.2,1.2,0,1.6-.4.2-.1.3-.3.5-.4.1-.1.2-.3.4-.5.3,0,.4.2.4.3,0,.2-.1.4-.2.7.2,0,.4.1.6.2.1,0,.3-.2.4-.3h.2v.3c0,.2-.2.3-.3.4v.2s.2.1.2,0c.3,0,.5-.1.8-.2h.4v.2c-.2.3-.5.5-.7.8h.2q.6,0,.6.5v.4h0v.3Z"/>
  <path class="st0" d="M30.9,2.8c.3,0,.5,0,.7-.2,0-.1.2-.2.3-.3.3-.2.5,0,.6.1,0,.1,0,.3.2.4,0,.1.3.2.1.4-.1.1-.3.1-.5,0h-.2c-.3-.2-.5-.1-.6.1,0,.2-.1.3-.2.5,0,0-.2.1-.3.1s-.2-.1-.2-.2c0-.3,0-.6.1-.9Z"/>
  <path class="st0" d="M39.5,11.9c.3-.2.6-.5.9-.7.3-.2.6-.5.8-.7.2,0,.2.2.1.3-.1.2-.3.4-.5.6-.4.4-.8.8-1.2,1.2-.1.1-.3.2-.5.4h-.2v-.1c0-.3.4-.4.4-.7h0c.1,0,.2,0,.2-.1h0v-.2Z"/>
  <path class="st0" d="M39.4,12h-.3c-.1,0-.2-.1-.2-.2h0c.5-.8,1.1-1.5,2-2h0c0,.1,0,.3-.1.4-.1.2-.3.3-.5.5-.4.3-.6.7-.7,1.2h0s-.2,0-.2.1h0Z"/>
  <path class="st0" d="M40.5,9.1c-.4.7-.7,1.1-1.3,1.5v-.1c.4-.5.8-1.1,1.4-1.4h-.1Z"/>
  <path class="st0" d="M41.8,5.9h0c-.2.3-.5.4-.8.4h0v-.2c.2-.2.4-.3.6-.5h.2v.3Z"/>
  <path class="st0" d="M40.4,9.1v-.2h0s0,.1-.1.2h.1Z"/>
  <path class="st0" d="M37.3,6.7s-.1,0-.2.1h.2v-.1Z"/>
  <polygon class="st0" points="37.1 6.8 37.1 6.9 37.1 6.8 37.1 6.8"/>
  <path class="st0" d="M40.9,9.8h0Z"/>
  <path class="st0" d="M37.8,19.7v-.1c0,.1,0,0,0,0h0v.1Z"/>
  <path class="st0" d="M37.6,20l.3-.3h0c0,.1,0,.2-.2.3h-.1Z"/>
  <path class="st0" d="M37.6,20c0,.1,0,.3-.2.3h0s.1-.2.2-.3h0Z"/>
  <path class="st0" d="M37.2,20.7c0-.1.1-.2.2-.4h0c0,.1,0,.3-.2.3h0v.1Z"/>
  <path class="st0" d="M36.9,20.8c0,.2,0,.3-.2.3h0c0-.1,0-.3.2-.3h0Z"/>
  <path class="st0" d="M37.2,20.7s-.1.1-.2.1h0s.2,0,.2-.1h0Z"/>
  <path class="st0" d="M35.9,22v.1h0v-.1Z"/>
  <path class="st0" d="M35.2,33.1h0Z"/>
  <path class="st0" d="M27,35.2h0Z"/>
</svg>