<?xml version="1.0" encoding="UTF-8"?>
<svg id="Layer_1" xmlns="http://www.w3.org/2000/svg" version="1.1" viewBox="0 0 60 61">
  <!-- Generator: Adobe Illustrator 29.3.1, SVG Export Plug-In . SVG Version: 2.1.0 Build 151)  -->
  <defs>
    <style>
      .st0, .st1, .st2 {
        fill: #1e1e1e;
      }

      .st1 {
        display: none;
      }

      .st2 {
        fill-rule: evenodd;
      }
    </style>
  </defs>
  <path class="st1" d="M50.4,50.2c1-.2,1.9-1,2.3-1.9l.4-.8c.5-1.2.3-2.6-.5-3.5-.3-.4-.7-.7-1.2-.9l-1.3-.6c-1.6-.7-3.4-1.2-5.1-1.4l-1.7-10.2s0,0,0-.1l-.2-2c-.2-2.4-.7-4.8-1.4-7.1l-.3-.9c-.2-.7-.6-1.3-1.1-1.8-.7-.6-1.5-1-2.4-.9l-3.7-1.7c0-.1.2-.3.3-.4,1-1.6,1.6-3.7,1.6-5.5,0-1.8-.6-3.4-1.7-4.7-.2-.2-.3-.3-.5-.5,0-.2,0-.4,0-.6,0-2-1.7-3.7-3.7-3.6-2,0-3.7,1.7-3.6,3.7,0,.2,0,.4,0,.5-.2.2-.3.3-.5.5-1.1,1.3-1.6,3-1.6,4.7,0,1.8.7,3.8,1.7,5.4,0,0,.1.2.2.3l-4,1.7c-.9,0-1.8.3-2.5.9-.5.5-.9,1.1-1.1,1.8l-.3.9c-.7,2.3-1.1,4.7-1.4,7.1l-.2,2s0,0,0,.1l-1.6,9.5c-1.5.1-3,.6-4.3,1.3-.8.5-1.4,1.3-1.7,2.2-.3,1.3.2,2.6,1.2,3.4,1,.8,2,1.4,3.2,1.8l-.2,6s0,0,0,0c0,0,0,.1,0,.1l-1.3,1.5c-.3.3-.4.8-.3,1.3,0,.4.3.7.7.9l1.3.6c.1,0,.2,0,.4,0s0,0,.1,0l3.1-.4c.3,0,.6-.3.8-.6.2-.4.2-.9,0-1.3h.8c.4-.2.6-.5.7-.9,0-.5-.2-1-.6-1.1l-2-.4s0,0,0,0l.9-3.5c1.3.7,2.7,1.3,3.7,1.4,2.2.2,7.6-1,8.5-1.2.8.3,5.5,1.7,7.6,1.7s3-.5,4.9-1.1l.8,2.7s0,0,0,0l-2,.4c-.4,0-.7.6-.6,1.1,0,.4.3.7.7.7h.8c-.2.5-.1,1,0,1.4.2.3.4.5.8.6l3.1.4s0,0,.1,0c.1,0,.2,0,.4,0l1.3-.6c.3-.1.6-.5.7-.9.1-.5,0-1-.3-1.3l-1.3-1.5s0,0,0-.1c0,0,0,0,0,0l-.3-4.1c.5-.2.8-.3.9-.3,1-.1,1.9-.3,2.9-.5ZM17.5,49c-.7-2-.5-4.2.5-6h0c3.8-.6,14.9.8,15,.8.1,0,.3,0,.4-.1.1,0,.2-.2.2-.4v-.8c0-.3.1-.5.3-.7.2-.1.4-.2.6-.2h2.8c.1.1.2,0,.3,0l3.2-2.9c.1-.1.3-.2.4-.2h1c0,0,.2,0,.3.1.2,0,.3.3.3.4,0,.2,0,.4-.2.5l-2.1,1.9c-.2.2-.4.3-.7.5l-4.7,2.4s0,0,0,0l-1.9,1.1c-2.1,1.3-4.4,2.1-6.8,2.6l-2,.4c-2.2.4-4.5.6-6.8.5ZM18.3,40.5c0-.5.2-.9.6-1.1.2,0,.4-.1.7,0h.4c.8.3,1.5.8,2,1.5l.2.2c0,.1.2.2.3.2l1.2.2c.4,0,.8.2,1.1.5-1.1,0-2.1-.1-3.1-.2l-2.4-1s0,0,0,0c-.3,0-.6-.1-.8-.2ZM22.1,34.2l.2.5c.5,1.2.6,2.5.4,3.7l-.2,1.5c-.3-.4-.7-.7-1.1-.9l.7-4.8ZM23.6,39h13.5l.3,1.6-.2.2h-2.6c-.4-.1-.9,0-1.2.3-.4.3-.7.9-.7,1.4v.3c-1.1-.1-3.7-.4-6.4-.6-.6-.8-1.4-1.3-2.4-1.5h-.5c0,0,.2-1.6.2-1.6ZM37.9,38.4c-.2-1-.2-2.1,0-3.1l.6,4.1-.4.4-.3-1.4ZM33.6,46.3l1.9-1.1,1-.5h.7c2.3-.4,4.6-.2,6.8.3-.7,1.6-.6,3.5,0,5.1-.2,0-.4,0-.6,0h-3.3s0,0,0,0c-2.1,0-4.3-.2-6.4-.7l-4.6-1c1.6-.5,3.1-1.2,4.5-2ZM51,43.9c.3.1.6.4.9.6.6.7.7,1.7.4,2.5l-.4.8c-.3.7-.9,1.2-1.7,1.4-1.7.4-3.4.7-5.1.7v-.2c-.8-1.5-.8-3.2-.2-4.7.3,0,.5.1.8.2l1.3.4.3-.9-1.3-.4c-2.3-.8-4.8-1.1-7.2-1l1.5-.8c.3-.2.6-.4.9-.6l.4-.3h1.4c2.3.1,4.6.6,6.7,1.6l1.3.6ZM42.9,40.9h-.4s.7-.6.7-.6c.2-.2.4-.5.5-.8l.2,1.5c-.3,0-.7,0-1,0ZM39.6,19.7c.4.4.7.8.8,1.4l.3.9c.7,2.3,1.1,4.6,1.3,6.9l.2,2c0,0,0,.1,0,.2l1.2,7.3c-.1-.2-.3-.3-.5-.5-.2-.1-.5-.2-.7-.2h-1c-.4,0-.8,0-1.1.3l-.8.7-1.1-7.7c-.3-1.8-.7-3.6-1.4-5.3l-1.3-3.4c-.2-.6-.2-1.2,0-1.7.3-.8.9-1.3,1.7-1.5.8-.2,1.6,0,2.2.6ZM29.9,2c1.5,0,2.7,1.1,2.8,2.6-.8-.5-1.8-.8-2.8-.8-1,0-1.9.3-2.7.8,0-1.5,1.2-2.7,2.7-2.7ZM26.6,6.5c.9-1.1,2.1-1.7,3.4-1.7,0,0,0,0,0,0,1.3,0,2.4.6,3.4,1.6.9,1,1.4,2.4,1.5,3.8-1.1-.9-3.3-2.3-4.9-2.3s-3.6,1.4-4.7,2.3c0-1.4.5-2.7,1.4-3.7ZM25.3,11.3c1-.8,3.2-2.5,4.7-2.5s3.9,1.7,4.9,2.5c-.1,1.4-.6,2.9-1.4,4.1-.9,1.5-2.2,2.4-3.3,2.5-1.2,0-2.4-.8-3.4-2.4-.8-1.3-1.3-2.8-1.5-4.2ZM31.8,18.4c-.2.7-.9,1.2-1.7,1.2s-1.5-.5-1.7-1.2c.5.3,1.1.4,1.7.4s0,0,0,0c.6,0,1.1-.1,1.6-.4ZM27.4,17.7v.2c0,1.5,1.2,2.7,2.7,2.7s2.7-1.2,2.7-2.7v-.2c.2-.2.4-.4.6-.6l2.9,1.3c-.7.4-1.3,1-1.6,1.8-.3.8-.3,1.6,0,2.4l1.3,3.4c.6,1.6,1.1,3.3,1.3,5.1l.3,2.1-.5,1.4c-.3,1.1-.5,2.3-.3,3.4h-13.2c.1-1.3,0-2.5-.5-3.7l-.8-2,.2-1.3c.3-1.7.7-3.4,1.3-5.1l1.3-3.4c.3-.8.3-1.6,0-2.4-.3-.8-.9-1.4-1.6-1.8l3.1-1.4c.2.2.4.5.7.7ZM17.7,31c0,0,0-.1,0-.2l.2-2c.2-2.3.7-4.7,1.3-6.9l.3-.9c.2-.5.4-1,.8-1.4.6-.6,1.4-.8,2.2-.6.8.2,1.4.7,1.7,1.5.2.6.2,1.2,0,1.7l-1.3,3.4c-.6,1.7-1.1,3.5-1.4,5.3l-1.1,7.7c0,0-.2,0-.3,0h-.4c-.4-.2-.9-.2-1.3,0-.7.3-1.2,1.1-1.2,1.8-.4,0-.8,0-1.2,0l1.6-9.3ZM10.1,44.1c.2-.7.6-1.3,1.2-1.6,1.5-.8,3.2-1.2,4.8-1.2s1.8.1,2.7.4h.3c-.8.2-1.4.2-1.9.3l-4.2,1,.2.9,3.6-.8c-.8,1.9-1,3.9-.4,5.9h0c-2-.2-3.9-1-5.5-2.3-.7-.6-1.1-1.6-.8-2.5ZM16.1,54.9s0,0,0,0c0,.5.3.9.7,1l2,.4h0s-1.3.2-1.3.2c-.1,0-.3.1-.4.3,0,.1,0,.3,0,.4l.2.4c0,.1,0,.3,0,.5,0,0,0,.1,0,.1l-3.1.4-1.3-.6s0,0-.1-.2c0-.2,0-.4,0-.5l1.3-1.5c.2-.2.3-.5.3-.8l.2-5.7c.3.2,1.3.9,2.5,1.6l-.9,3.8ZM30.2,50.8c0,0-.2,0-.3,0,0,0-6,1.5-8.3,1.3-1.3-.1-3.4-1.3-4.9-2.2.8,0,1.6.1,2.4.1,1.8,0,3.6-.2,5.3-.5l2-.4c.2,0,.5-.1.7-.2l6.3,1.4c2.2.5,4.4.7,6.6.7h3.4c0,0,.1,0,.2,0-2.2.7-4.9,1.5-6,1.5-2.1,0-7.3-1.7-7.4-1.7ZM46,55.2c0,.3,0,.6.3.7l1.3,1.5c0,.1.1.3,0,.5,0,.1,0,.2-.1.2l-1.3.6-3.1-.4s0,0,0-.1c0-.2,0-.3,0-.5l.2-.4c0-.1,0-.3,0-.4,0-.1-.2-.2-.4-.3l-1.3-.2h0s2-.4,2-.4c.4,0,.7-.5.7-1,0,0,0,0,0-.1l-.8-2.8c.8-.3,1.6-.5,2.3-.7l.3,3.9Z"/>
  <g>
    <g>
      <path class="st0" d="M32.3,48.9s0,0,0,0c0,0,0,0,0,0h0Z"/>
      <path class="st0" d="M29.3,52.7s0,0,0,0c0,0,0,0,0,0h0Z"/>
      <path class="st0" d="M35.2,33s0,0,0,0c0,0,0,0,0,0h0Z"/>
      <path class="st0" d="M47.6,49.3c0-1.5-.2-3,0-4.6,0-1.1-.2-2.1-.8-3-.2-.3-.4-.7-.6-1-.7-1-1.5-1.8-2.4-2.6-1-.8-2-1.6-3.2-2.2-.4-.2-.7-.4-1-.7-.4-.5-.8-.9-1.3-1.3-.1-.1-.3-.2-.4-.4-.6-.6-.8-1.2-.5-2,.2-.4.4-.8.5-1.2,0-.1.1-.3.1-.4-.1-.4,0-.7,0-1.1.2-1.1.2-2.3.6-3.4,0-.2,0-.5.1-.8,0-.6.2-1.2.2-1.8,0-.6.2-1.1.4-1.7.2-.5.3-1,.3-1.6,0-.3,0-.6.2-.9.2-.5.3-1.1.4-1.6,0-.5.2-.9.4-1.3,0-.1.2-.2.3-.3.1,0,.3-.1.4-.2,0-.2,0-.4.1-.5,0-.2.1-.3.2-.4.6-.6.8-1.4,1.2-2,0,0,0-.2,0-.2,0-.4.2-.7.2-1,.4-.6.4-1.3.4-2,0-.2,0-.3,0-.5,0-.3-.2-.6-.3-.9-.2-.4-.2-.8,0-1.1.1-.2.2-.4.3-.6.1-.5,0-.9-.5-1.3-.2-.2-.5-.3-.8-.4-.5-.2-1-.4-1.5-.5-.9-.2-1.6-.5-2.4-1-1-.7-2.1-1.1-3.4-1.2-1.6-.2-3.2-.4-4.8-.5-.3,0-.5,0-.8-.1-.3,0-.5-.2-.8-.2-.3,0-.5.1-.8.2,0,0-.2,0-.3,0-.6,0-1.2.3-1.6.7-.7.6-1.1,1.3-1.3,2.2,0,.5-.2,1-.3,1.6,0,.3,0,.6-.1.8,0,.3,0,.7.2,1,.1.2.3.4.3.6,0,.7.2,1.5,0,2.2-.1.3-.1.7-.2,1,0,.3,0,.5.1.7.2.3.2.6.1.9,0,.4-.1.8-.2,1.2,0,.8-.3,1.5-.7,2.2-.3.5-.4,1.1-.5,1.7-.3,2.1-.5,4.1-.8,6.2,0,.3,0,.7-.2,1-.3.8-.5,1.5-.8,2.3,0,.3-.2.6-.2.9-.1.7-.3,1.4-.5,2.2,0,.3-.2.6-.5.9-.2.2-.4.5-.6.8-.1.2-.3.4-.6.5-.4.2-.8.4-1.2.6-.5.4-1.1.6-1.7.9-.5.2-1,.4-1.6.7-.4.2-.8.4-1.2.6-1.2.7-2.4,1.5-3.4,2.5-.1.1-.2.2-.3.3-.8.6-1.5,1.3-1.9,2.2,0,.1-.2.2-.2.4-.3.3-.4.7-.6,1.1-.6,1.6-.8,3.2-.9,4.8,0,.5,0,1,0,1.4,0,.5.1,1,.2,1.4.3,1.7,1.1,3.3,2.6,4.4.9.7,1.9,1.3,2.8,2,1.1.8,2.4,1.3,3.7,1.9,2.3,1.1,4.6,1.8,7.2,2.2.4,0,.9.1,1.3.2,1.4.3,2.8.4,4.3.3,1.2,0,2.4-.2,3.6-.3,1.7-.1,3.4-.4,5.1-1,.2,0,.4-.1.6-.1.5,0,.9-.1,1.4-.3.5-.2,1-.3,1.4-.5.7-.2,1.3-.5,1.9-.9.2-.1.3-.2.5-.3,1-.6,1.7-1.4,2.3-2.3.2-.3.4-.6.8-.8.8-.5,1.3-1.2,1.5-2.1.2-.8.2-1.6.2-2.4ZM37.2,30c-.5.2-1,.4-1.6.4-.3,0-.7,0-1,0-.8,0-1.6,0-2.3-.3-.6-.2-1.2-.2-1.8,0-.2,0-.4,0-.5.1-.4.1-.7,0-1-.3-.8-.7-1.7-1.1-2.8-1.3-.2,0-.3-.1-.5-.1,0,0,0-.1,0-.2,0-.7.4-1.4.7-2.1,1.1.3,2.1.5,3,.8.5.1,1,.2,1.5.3.8,0,1.6.1,2.4.4.3.1.6,0,1,0,.7,0,1.3,0,2,.2,0,.6-.3,1-.4,1.5.1.1.2,0,.3,0,0-.1.2-.3.2-.5,0-.2,0-.3.1-.5,0-.3.3-.4.6-.4,0,0,.2,0,.3,0,0,0,.1.1.1.2,0,.7-.1,1.4-.3,2.1ZM36.2,36.1s0,0,0,0h0s0,0,0,0h0s0,0,0,0c0,0,0,0,0,0,0-.2,0-.3.1-.4,0,0,0,0,0,0h0s0,0,0,0h0s0,0,0,0c0,0,0,0,0,0,0,.1,0,.3-.1.4ZM36.2,35.1c-.3.3-.5.6-.5,1-.3.2-.5.1-.7,0-.2,0-.3-.1-.5-.2-.4-.2-.8-.2-1.1.2,0,0-.1,0-.3.2-.1,0-.3,0-.5-.1-.6-.2-1.1-.4-1.7-.6-.3-.1-.6-.1-.9,0-.3.1-.6.3-.9.4-.7,0-1.4-.2-2.2-.2,0-.2,0-.3,0-.5-.2.1-.4.3-.6.4-.3-.1-.6-.3-.8-.6.1-.1.3-.2.4-.3,0-.2-.2-.2-.3-.2-.3,0-.5.2-.8,0-.2-.1-.5-.2-.8-.3-.1-.4,0-.9.1-1.3.7,0,2.3,0,2.8.1.2,0,.5.1.7.3.4.2.8.4,1.2.7.7.4,1.5.7,2.4.8.5,0,1,.1,1.5.2.5,0,.9,0,1.2-.5.1-.2.2-.3.4-.4.5-.2.7-.6.9-1.1-.1,0-.2,0-.3,0,0,0,0,0,0,0h0s0,0,0,0c0,0,0,0,0,0,.1-.5.5-.8.8-1.2.1-.2.1-.2.7-.2-.2.9-.2,1.1-.8,1.9.1.2.3.4.5.6.2-.1.3-.3.5-.4.2.2.2.4.1.6-.1.2-.3.4-.4.6ZM26.5,32.5c.3,0,.6.1,1,.2.6.1,1.2,0,1.9,0,1-.2,1.9-.3,2.9-.2.6,0,1.2-.1,1.9-.3.3,0,.5-.1.8-.2,0,0,.1,0,.2,0-.1.3-.4.6-.6.8-.2.3-.3.5-.2.9-.4.3-.8.5-1.2.8-.8,0-1.6-.1-2.5-.3-.4,0-.8-.3-1.3-.4-.3-.1-.5-.2-.8-.4-.5-.3-1.1-.4-1.7-.4-.8,0-1.6-.3-2.4-.5-.1-.2,0-.3.1-.4.7,0,1.3.2,1.9.4ZM24.8,31.6c.1-.5.3-.9.4-1.4,0-.4.1-.9.4-1.3.5,0,.9,0,1.3.2.5.2,1,.4,1.5.8.2.1.4.3.6.4.3.2.6.3,1,.2.2,0,.4,0,.5-.1.6-.1,1.1-.1,1.7,0,.6.2,1.3.3,1.9.4.1,0,.3,0,.5,0-.2.4-.4.6-.7.7-.5.2-1,.3-1.6.2-1,0-2,0-2.9.3-.5.1-1,.2-1.5,0-.9-.2-1.9-.4-2.8-.6,0,0,0,0-.1-.1ZM34.7,31.4c.2-.5.4-.6.8-.6.1,0,.3,0,.5.1-.4.3-.8.4-1.3.5ZM38,25.4c-.1.6-.3,1.1-.5,1.7-.1,0-.3,0-.4,0,0,0,0,0,0,0h0s0,0,0,0c0,0,0,0,0,0,0-.1,0-.2,0-.3-.2,0-.3,0-.3.2-.1.3-.4.4-.7.3-.4,0-.7,0-1.1-.1-.5,0-1,0-1.4,0-.5,0-.9-.3-1.4-.3-1.7-.1-3.3-.6-5-1-.5-.1-1-.3-1.4-.6-.1-.4,0-.7,0-1.1,0-.4-.2-.7,0-1.1,0,0,.2,0,.3,0,.6.3,1.2.5,1.9.8.4.1.7.3,1,.5.5.3,1,.4,1.6.5.3,0,.7,0,1,0,.5,0,1.1.1,1.6.4.3.1.6.2.9,0,1-.4,2-.4,3.1-.3.2,0,.4,0,.7,0,0,.1,0,.2,0,.3ZM38.7,21.1c-.2.5-.3,1.1-.3,1.7,0,.5-.1.9-.2,1.4-.3.2-.6.3-1,.2-.5,0-1.1,0-1.6.2-.4.2-.9.2-1.3.3-.3,0-.5.1-.8,0-.5-.2-1-.2-1.6-.3-.2,0-.4,0-.6,0-.7,0-1.3-.3-1.9-.6-.5-.3-1-.5-1.5-.6-.7-.2-1.3-.5-1.9-.8.3-1.1.4-2.2.4-3.3.5,0,.9,0,1.4.1.8.2,1.6.3,2.4.5.6.1,1.1.4,1.6.7.3.2.7.4,1.2.4.5,0,1,.3,1.5.3.5.1,1,.3,1.5.5,0,.1-.1.2-.1.3.2,0,.4-.2.6-.3,0,0,.2,0,.2,0,0,0,0,.2,0,.2-.3.5-.6,1-.9,1.5,0,0-.1.2-.2.3,0,0,0,.2,0,.2,0,0,.2,0,.2,0,.1-.2.3-.4.4-.6.3-.5.5-1,.8-1.5.2,0,.2,0,.3.1,0,0,.2,0,.2,0,.3-.5.6-1,1-1.5,0,.2,0,.4,0,.6ZM25.4,12.7c.3.1.6.3.9.4.3,0,.6.1.9.4-.2.2-.4.4-.6.6-.1.1-.2.3-.3.4-.2.1-.5,0-.7,0-.3,0-.4-.3-.5-.5,0-.4,0-.8.3-1.2ZM25.1,11.3c-.1-.2,0-.5,0-.8.2.2.3.3.4.4.4.4.7,1,1.3,1.3,0,0,0,0,0,0,0,0,0,.2,0,.2,0,0-.1.1-.2.1-.6,0-1.2-.4-1.4-.9,0-.2-.1-.3-.2-.4ZM27.2,14.4c0,0,0,.2,0,.3,0,.1,0,.2,0,.3-.3-.2-.3-.2,0-.6ZM39.8,15.9c0,.1,0,.2,0,.3-.2.6-.5.8-1.1.7-.3,0-.6,0-.8,0-.8.2-1.5,0-2.2,0-.4,0-.8,0-1.1-.3-.3-.1-.6-.1-.9,0-.3,0-.5.1-.8.2-.4,0-.9,0-1.3,0-.4,0-.7-.2-.9-.4-.2.2,0,.4,0,.5.1,0,.3.1.4.2.6,0,1.2.2,1.9,0,.5-.1,1,0,1.5.2.2,0,.4.1.6.2.7,0,1.3.1,2,.2.1,0,.2,0,.4,0,.4,0,.8,0,1.2,0,.3,0,.6,0,.9,0,0,.2,0,.4,0,.6-.2.5-.3,1-.6,1.5-.2.3-.3.6-.4.9-.1.3-.3.5-.6.5-.1,0-.3,0-.4.2-.2.1-.3,0-.5,0h0c-.4,0-.9.1-1.3-.1-.1,0-.3,0-.5-.1-.2,0-.5-.1-.7-.2-.4,0-.8-.2-1.2-.3-.4,0-.7-.2-1-.3-.7-.4-1.4-.7-2.1-.8-1-.2-2-.5-3-.6-.1,0-.2,0-.4-.1,0-.2,0-.3,0-.5,0-.6.2-1.3,0-1.9,0-.3,0-.6.2-.8.4.1.7.3.9.6.3.5.8.6,1.4.6,0-.2,0-.2-.2-.2-.4,0-.7-.3-.9-.6,0-.2-.3-.3-.5-.4.1-.4.3-.8.5-1.1.8.3,1.5.6,2.2.9.8.3,1.6.4,2.4.3.4,0,.7,0,1.1,0,.5,0,.9.1,1.4.2.1,0,.3,0,.4,0,.9.4,1.9.4,2.9.2.4,0,.8-.1,1.2-.2.1,0,.3.1.3.3ZM38.2,14.7c.3,0,.5,0,.8.3-1,.3-1.9.4-2.8.3,0,0-.1,0-.2,0-.6-.3-1.3-.3-1.9-.4-.6,0-1.2-.1-1.9,0-.7,0-1.4,0-2-.3-.6-.2-1.2-.4-1.8-.8-.2-.1-.4-.3-.5-.5-.1-.2-.3-.4-.4-.6,0,0,0-.1,0-.1,0,0,.2,0,.2,0,0,0,.2.1.2.2.6.7.8.8,1.8,1.2.3-.1.7-.2,1-.3.2,0,.3.1.4.2.4.3.9.3,1.4.3.2,0,.4,0,.6,0,.4,0,.8,0,1.2.2.4.2.9.3,1.4.2.6-.1,1.2,0,1.9.2,0,.1,0,.3-.1.4.3,0,.5,0,.8-.1ZM41.4,13s0,0,0,0c0,0,0,0-.2,0,0,0,0,0,0,0,0,.1-.1.2-.2.4,0,0-.2,0-.2.1,0,0-.2,0-.2.1,0,.1,0,.3-.1.4,0,0,0,0,0,0,0,0,0,0-.1,0,0,0,0,0-.1,0,0,0,0,0,0,0,0,0,0,0,0,0,0,0,0,0,.1,0,0,0,0,0,0,0,0-.1,0-.3.1-.4,0,0,.2,0,.2-.1,0,0,.2,0,.2-.1,0-.1.1-.2.2-.4,0,0,0,0,0,0,0,0,.1,0,.2,0,0,0,0,0,0,0,0,0,0,0,0,0,0,0,0,0,0,0ZM29.4,1.7c1.8.2,3.5.4,5.3.6,1.1.1,2.2.5,3.1,1.1.8.5,1.6.8,2.6,1,.6.1,1.1.3,1.6.5.1,0,.3.1.4.2.5.2.7.5.4,1.1,0,.2-.2.3-.3.4-.2.5-.2.9,0,1.4,0,0,0,.1,0,.1.4.4.4.9.2,1.4-.1.4-.2.9-.5,1.3-.3.4-.5.8-.5,1.2,0,0,0,.1-.1.1,0,0,0,0,0,0,0,0,0,0,0,0,0,0,0,0,0,0,0,0,0,0,0,0,0-.3.2-.7.1-1,0,0,0,0-.1,0,0,0-.1,0-.1,0-.2.6-.6,1.1-.8,1.7-.2.6-.7.9-1.2,1.2-.2.1-.4.1-.7,0-.8-.3-1.7-.5-2.6-.4-.2,0-.4,0-.5,0-.4,0-.8,0-1.2,0-.5-.2-1-.2-1.5-.1-.5,0-1,.1-1.5-.1-.2,0-.4,0-.6,0-.5,0-.9-.2-1.1-.7,0,0,0,0-.1-.1,0,0,0,0,0,0-.3.1-.1.4-.4.6-.4-.2-.6-.5-.8-.8,0-.4.5-.3.7-.6.3-1,.7-2,.8-3,0-.1-.3-.1-.3-.3,0-.4.2-.8.3-1.2.1-.5.4-.8,1-.9.1,0,.2,0,.3,0,.5-.1.9-.3,1.2-.7,0,0,.1,0,.2-.1.2,0,.2.1.3.3.2.3.6.4,1,.3-.2-.2-.3-.3-.4-.4,0-.1-.1-.3-.2-.5-.2-.3-.5-.4-.8-.2-.1,0-.2.2-.4.2-.1,0-.3.1-.4.1-.1,0-.2,0-.3,0-.1,0-.2,0-.3.2-.3-.2-.4-.5-.6-.8,0-.2.3-.5-.1-.7,0,0-.1-.1-.2-.2,0-.6-.5-1.1-.8-1.6,0,0,0-.1,0-.2,0-.1.2-.1.3-.1ZM24.9,6.2c0-.2,0-.4.1-.7.1-.5.2-1,.3-1.6.1-.8.5-1.4,1.1-1.9.5-.5,1.1-.7,1.9-.5.2.7.8,1.2.9,2-.4,0-.8.1-1.3.1-.1,0-.3,0-.4,0,0,0,0,0,0,.1,0,0,0,.1,0,.1.2,0,.3.1.5.1.4,0,.8,0,1.1,0,.3.2.2.5.5.6.3.1.4.5.5.8-.1.1-.3.2-.4.3-.4.3-.6.7-.7,1.2,0,.4-.2.8-.3,1.1-.2.6-.2,1.2-.2,1.8,0,.2,0,.3,0,.5,0,.3-.2.6-.5.7-.3,0-.5.2-.8.3-.2-.1-.3-.2-.4-.3-.3-.3-.6-.6-.8-1-.3-.4-.5-.8-.5-1.2,0-.3,0-.6,0-.8,0-.5,0-.9-.3-1.3-.1-.2-.2-.4-.1-.6ZM23.6,20.3c.1-1.1.3-2.1.4-3.2,0-.2,0-.3.2-.5.2-.5.5-1.1.8-1.7.4,0,.7,0,1,0,0,.1,0,.2,0,.3,0,.5-.3,2.3-.4,2.8-.5,0-.7-.4-1.1-.5-.2.1-.1.3,0,.4.2.2.4.3.6.5.2.1.5.3.7.4.3.9,0,1.7,0,2.5,0,.3-.1.6-.4.9,0,0-.2,0-.2,0-.5-.4-.9-.8-1.4-1.2-.2-.2-.2-.4-.2-.6ZM23.3,22.5c0-.3,0-.7.2-1,.3,0,.4.3.6.4.2.2.4.3.6.5.2.1.4.2.6.4,0,.3,0,.7,0,1.1,0,.3,0,.7,0,1-.2-.1-.4-.2-.6-.3-.3-.2-.5-.4-.8-.6-.9-.8-.7-.7-.6-1.5ZM22.8,25.3c.2-.4.2-.8.4-1.2.4.1.6.4.8.6.3.2.6.4.9.6.3.2.6.4.9.6,0,.2,0,.3,0,.5-.2.6-.5,1.1-.8,1.8-.1,0-.3,0-.4-.2-.7-.4-1.2-.9-1.7-1.5-.3-.4-.3-.8-.2-1.2ZM21.7,29.7c.1-.6.2-1.2.3-1.8,0-.4.2-.7.4-1.1,0,0,0,0,.2-.1.6.8,1.4,1.4,2.4,1.9,0,.2,0,.3,0,.4,0,.5-.2,1-.2,1.5,0,.4-.1.7-.4.9-.5,0-1-.2-1.5-.4-.4-.1-.6-.4-.9-.7-.2-.2-.2-.4-.2-.6ZM23.9,32.1c0,.2-.2.3-.3.3-.2,0-.3-.1-.5-.2-.2-.1-.3-.3-.3-.5.3,0,.6,0,.9.2.1,0,.2.1.1.3ZM21.3,31.9c0-.3,0-.7.1-1,.2-.1.3,0,.3,0,.1.1.3.3.4.4.2,1.1.3,1.1,1.4,1.6,0,.3,0,.7-.1,1.1-.7,0-1.2-.4-1.7-.8,0-.3-.4-.4-.4-.7,0-.2,0-.5,0-.7ZM39,57.7h0s0,0,0,0h0ZM37.9,58c-.5.1-1,.2-1.5.3,0,0,0-.2,0-.3,0,0,0,0,0,0,0,0-.2,0-.2.1-.1.3-.3.5-.7.5-.6,0-1.2.2-1.8.4-.3,0-.5,0-.6-.2h0c-.3.3-.7.4-1.1.4-1.2.1-2.4.2-3.7.3-.9,0-1.9,0-2.8-.1-1.8-.3-3.6-.5-5.4-1-1.3-.3-2.5-.7-3.7-1.3-.6-.3-1.3-.6-1.9-.9-1-.5-2-1.1-3-1.7-.5-.4-1-.8-1.6-1.1-.5-.5-1.2-1-1.6-1.6-.6-1-1.1-1.9-1.2-3.1,0-.1,0-.2,0-.3-.2-1-.2-2.1,0-3.1,0-.4.1-.9.2-1.3,0-.8.3-1.6.6-2.3.5-1.1,1.2-2.2,2.2-3,.4-.3.7-.6,1.1-.9,1.3-1.1,2.6-1.9,4.2-2.6.4-.2.9-.4,1.3-.6.6-.3,1.2-.6,1.8-1,.4-.3.8-.6,1.3-.6.1,0,.2-.1.4-.2.6.2.8.7,1.2,1.1-.2.2-.5.2-.7.2-.5,0-.9.2-1.4.4-.2.1-.4.2-.7.3-.6.2-1.1.6-1.5,1-.1.2-.3.3-.4.4-.3.2-.6.4-.9.6-.8.5-1.6,1.1-2.2,1.8-.9.9-1.7,1.7-2.7,2.5-.3.3-.5.5-.6.9,0,0,0,.2,0,.2-.6,1-.7,2.1-.8,3.3,0,0,0,0,0,0,0,.6,0,.7.7.7,0,0,.1,0,.2,0,.3.2.3.5.3.8.2,0,.2,0,.3-.2,0,0,0-.2,0-.2-.2-.5,0-.7.4-1,.4-.3.8-.7,1.2-1.1,0,0,.1-.2.2-.3-.2-.1-.3,0-.3,0-.4.4-.9.7-1.4,1-.2,0-.3,0-.5,0,.2-.5.6-.9.8-1.3,0-.2-.2-.2-.3,0-.2.1-.3.3-.5.5-.1-.2,0-.3.1-.4.8-.8,1.7-1.5,2.5-2.3.3-.2.5-.5.8-.7,0,0,0,0,0-.1,0,0-.2,0-.2,0,0,0,0,0,0,0,0,0,0,0-.1.1-.9.7-1.7,1.4-2.6,2.1,0,0-.1,0-.2,0,0,0,0-.1,0-.2.3-.6.7-1.2,1.2-1.8.2-.3.5-.5.8-.6,0,0,0,0,0,0,1.1-.9,2.2-1.6,3.2-2.6,0,0,0,0,0-.2,0,0-.2,0-.2,0-.4.2-.6.6-1.1.7,0,0-.1,0-.2,0,0,0,0,0,0,0,0,0,0,0,0,0,0,0-.1,0-.2,0,0,0,0,0,0,0h0s0,0,0,0c0,0,0,0,0,0h0s0,0,0,0c0,0,.1,0,.2,0,0,0,0,0,0,0,0,0,0,0,0,0,0,0,0-.1.1-.2.2-.4.6-.6,1-.8.5-.3.9-.6,1.3-.9.7-.4,1.3-.8,2-1.2.4-.2.7-.4,1.1-.6.5-.3,1-.6,1.7-.5.6-.2,1,0,1.6.3,0,.1,0,.2-.1.3-.2.3-.4.6-.6.9-.4.6-.8,1.2-1,1.8-.3.6-.5,1.3-.8,1.9-.4,1-.9,2.1-1.2,3.2-.4,1.2-.8,2.5-1.3,3.7-.2.6-.3,1.3-.4,2,0,.1,0,.3,0,.4,0,.2.2.3.5.2,0,0,.1,0,.2-.1.1.2,0,.3,0,.4-.1.3-.3.7-.4,1,0,0,0,.2,0,.2,0,0,.2,0,.2,0,.4,0,.6-.3.7-.7h0c0,0-.2,0-.3,0,.3-.8.9-1.4,1.3-2.3-.6.3-.7.7-1.1.9-.2,0-.1-.2-.1-.3.1-.5.3-.9.6-1.3.4-.5.7-1.1,1.1-1.6,0,0,.1-.2,0-.3-.7.6-1.1,1.4-1.7,2.1-.2-.1,0-.3,0-.4.3-.9.6-1.8.9-2.7.2-.6.6-1.2,1-1.7.1-.2.3-.3.3-.6-.2.1-.4.3-.6.4,0-.5.1-.8.4-1.2.2-.2.4-.4.5-.7,0,0,0-.2,0-.3,0,0-.2-.1-.3-.2.3-.8.6-1.6.9-2.4.1-.3.3-.6.4-.8.3-.5.6-1,.9-1.5.1-.2.2-.4.5-.3,0,.4,0,.8-.2,1.2-.2.7-.5,1.3-.6,2,0,.1-.1.3-.2.4,0,0,0,.2,0,.2,0,.8-.2,1.6,0,2.4.2,1.3,0,2.7.1,4,0,.7,0,1.5.2,2.2,0,.4.2.7.3,1.1.1.3.2.6,0,1,0,0,0,.2,0,.3,0,0,.2,0,.2,0,.3-.2.4-.4.4-.7,0-.6.2-1.1.5-1.6.3-.5.5-.9.7-1.5,0,0-.2,0-.2,0-.4.6-.7,1.2-1.1,1.8-.2,0-.2-.1-.2-.2-.2-2.7,0-5.5.2-8.2,0-.2,0-.4.1-.6.2-.4.3-.8.3-1.2,0-.6.2-1.2.5-1.7,0-.2,0-.4.2-.6.3,0,.5.2.8.3,0,.1,0,.3,0,.4.9-.5,1.2-.5,2-.3,0,.3-.3.5-.5.7-.3.4-.4.4-.3.7.4-.2.5-.7.9-.9.4-.1.6.1.9.3.5-.3.9-.9,1.7-.8,0,.1,0,.2,0,.3-.4.7-.4,1.4-.1,2.1,0,.2.1.3.2.5.2.6.4,1.2.4,1.9,0,.9.1,1.7.2,2.6,0,.3,0,.6-.2.8-.2.2-.4.5-.6.7-.4.4-.7.8-1,1.2,0,.2.2.1.3,0,.2-.2.3-.3.5-.5.3-.4.6-.8.9-1.1.2,0,.3,0,.2.2,0,.4,0,.7,0,1.1.1.4,0,.8,0,1.3,0,.9-.2,1.9-.5,2.7,0,.2-.2.4-.3.6-.3.6-.7,1-1.4,1.1-.1,0-.2,0-.4.1.2.1.4.2.6.3,0,.2,0,.4-.1.5.1,0,.2,0,.3-.1.2-.3.5-.5.8-.7.4-.2.7-.5.9-.9.2-.6.6-1.1.9-1.6,0-.1,0-.2.1-.4-.1,0-.3.2-.4.2,0,0,0,0,0-.1.3-1.6.3-3.3.1-4.9,0-.4,0-.8.3-1.1,0,0,0-.2,0-.2,0,0,0,0,0,0-.1,0-.2.1-.4.2,0-.2,0-.4,0-.6,0-.2,0-.3,0-.5,0-1.2-.3-2.3-.8-3.4-.3-.6-.4-1.2.1-1.8,0,0,.1,0,.2,0,.6.6,1.3,1.3,1.7,2.1.3.5.6,1,.9,1.5.7,1.2,1.4,2.4,1.9,3.7.1.3.1.6.3.9.2.3.2.5.3.8.4,1.5.8,2.9.9,4.5,0,.3,0,.5,0,.8.1.8,0,1.6,0,2.4,0,.5,0,1,0,1.4,0,0,0,.2,0,.3.3-.1.5-.3.8-.4.3-.2.5-.4.7-.6.2-.2.5-.4.7-.6.2-.2.4-.4.6-.6.2-.2.4-.5.6-.7.2-.2.3-.5.7-.6,0,.6-.2,1.1-.5,1.6-.1.1-.2.3-.1.5,0,0,0,.2,0,.2-.2.7-.4,1.5-.7,2.2,0,.2-.3.4-.5.6-.5.5-1.1,1-1.7,1.5ZM44.3,54.6c-.4.8-1,1.4-1.8,1.8-.4.2-.7.4-1.1.6-.2.1-.4.3-.7.3.1-.3.3-.5.6-.5.4-.1.7-.3,1-.6.4-.3.7-.6,1-.9.2-.4.6-.6,1-.9,0,.1,0,.2,0,.3ZM45.1,53.4c0-.2,0-.4.3-.4,0,.2-.1.4-.3.4ZM45.9,52.3s0,0-.1,0c0,0,0-.1,0-.2,0,0-.1,0-.1,0-.4.5-.7,1-1.1,1.4-.8.8-1.6,1.7-2.5,2.4-.2.1-.4.3-.6.5-.3.2-.6.3-.7.7,0,.2-.4.3-.8.4,0,0,0-.1,0-.2.4-.5.8-.9,1.1-1.4,0,0,.1-.2.2-.2.6-.2.8-.6,1.2-1,.2-.1.4-.3.5-.5.1-.2.4,0,.5-.2,0,0,0,0,0,0,0,0,0,0,0,0,0,0,0,0,0-.1,0-.3,0-.3.5-.5,0,.3-.3.4-.4.6,0,0,0,0,0,0,0,0,0,0,0,0,.3,0,.5-.2.7-.4.2-.2.3-.4.4-.6.4-.8.7-1.6,1.1-2.4,0,0,0-.2,0-.3h0c0,0-.1-.2,0-.3,0-.1.1-.3.2-.4,0-.1,0-.2,0-.4,0-.2,0-.4,0-.7.2-.9.3-1.8.4-2.8,0-.1,0-.3,0-.5-.1,0-.2.1-.2.2,0,.2,0,.3-.1.5,0,.5-.3,1-.5,1.4-.4.7-.8,1.3-1.1,2,0,0,0,.2,0,.3.5-.3.7-.8,1-1.2,0,0,.1.1,0,.2-.1.9-.3,1.8-.7,2.6,0,.2-.2.5-.4.7-.8.8-1.5,1.6-2.3,2.5-.2.2-.4.3-.6.4-.1,0-.3.1-.5.2.1-.5.3-.9.4-1.4.2-.5.3-1,.5-1.5.1-.5.3-1,.2-1.6,0,0,0-.1,0-.1,0,0-.1,0-.2,0,0,0,0,0,0,0-.6.9-1.5,1.5-2.2,2.4-.3.4-.7.6-1.2.9-.2,0-.2-.2-.2-.3,0-.5,0-1.1.1-1.6,0-.3.2-.5.3-.7.6-.9,1.3-1.8,1.9-2.8,0,0,0-.1,0-.3-.4.3-.5.6-.8.9-.2.3-.5.7-.7,1-.2.3-.4.6-.8.9,0,0,0-.2-.1-.2,0-.3,0-.6,0-.9,0-.6-.1-1.1-.2-1.7,0-.3,0-.5.1-.8.2-.4.4-.9.4-1.4-.3,0-.2.3-.3.5-.1.2-.2.3-.3.5,0-.1-.2-.2-.2-.2,0-.1,0-.2-.1-.3-.6-2.4-1.7-4.6-3-6.8-.2-.4-.5-.8-.7-1.2-.3-.5-.7-1.1-1.1-1.5,0,0,0-.1-.1-.2,0,0,.1,0,.1,0,.5.3,1,.2,1.5-.1,0,0,.1,0,.2-.1.5,0,1,.2,1.4.2.5,0,.9-.3,1.3-.5.2,0,.3.2.4.3.2.2.4.3.6.5,1.1,1.3,2.2,2.6,3.1,4.1,0,0,0,.2.1.2,0,0-.1.2-.2.3,0,0,0,.1,0,.2.4.5.7,1,1.1,1.6.1.2.3.3.4.4,0,0,.2,0,.3,0,.2,0,.2-.2.2-.3,0-.1,0-.2,0-.3-.7-1.6-1.7-3.2-2.8-4.6-.5-.6-1-1.2-1.5-1.8-.2-.3-.5-.5-.8-.8-.4-.3-.5-.7-.4-1.1,0-.1,0-.2,0-.3.2,0,.2,0,.3,0,.9.8,1.8,1.6,2.9,2.2,1.6,1,3.1,2.2,4.2,3.6.5.6.9,1.4,1.3,2.1.3.6.4,1.2.4,1.9,0,1.6,0,3.1,0,4.6,0,1.5,0,1.8-.8,3.1Z"/>
      <path class="st0" d="M21.2,42s0,0,0,0c0,0,0,0,0,0h0Z"/>
      <path class="st0" d="M35.9,22s0,0,0,0c0,0,0,0,0,0h0Z"/>
      <path class="st0" d="M27,35.2s0,0,0,0c0,0,0,0,0,0h0Z"/>
    </g>
    <path class="st2" d="M19.1,54.4c0,0,0,.2,0,.3.2,0,.4-.1.6-.2.2.4-.3.4-.3.6,0,.2.1.2.3.3.4.2.8.4,1.2.7.2,0,.4,0,.5,0,.4-.3.8-.7,1.2-1,.1,0,.2-.2.4-.2,0,0,0,.1,0,.2-.8.8-1.6,1.5-2.4,2.3,0,0-.2,0-.2.1-.1-.3,0-.4.2-.5.1-.2.3-.3.4-.5-.6-.4-1.2-.7-1.7-1-.1,0-.2,0-.3,0-.2,0-.3.2-.5,0,0,0,.1-.2.2-.4-.1-.4-.6-.5-.8-.8,0-.1.2,0,.3,0h0c.1.2.4.4.6.6.2-.1.3-.2.4-.3h0Z"/>
    <path class="st2" d="M18.1,54.1c-.1-.2-.2-.5,0-.7,0-.2.1-.4.2-.6.4-1.1,1.1-2.1,1.8-3,.2.1.1.2,0,.3-.3.5-.6,1-.9,1.6-.4.8-.8,1.6-.9,2.4,0,.1-.2.1-.3.1h0Z"/>
    <path class="st2" d="M24.6,46.3c-.1-.2,0-.4,0-.6.1-.3.2-.5.4-.7.6-.9,1.3-1.8,1.9-2.7,0,0,0,0,.2-.1,0,0,0,.2,0,.2-.3.4-.5.8-.8,1.2-.6.8-1.1,1.6-1.6,2.5,0,0,0,0-.1.1Z"/>
    <path class="st2" d="M13.1,54.1c0,0-.1.1-.2.1,0,0-.2,0-.2-.1,0-.1-.1-.3-.1-.4,0-.3,0-.6,0-.9,0-.3,0-.6.1-.9-.1-.1-.3-.2-.3-.3,0-.3.1-.5.4-.6.2.1.3.3.2.6,0,.4,0,.8-.1,1.2,0,.3,0,.5,0,.8,0,.2,0,.4.3.5h0Z"/>
    <path class="st2" d="M11.2,51.3c0,0,.1,0,.2,0,0,0,0,.2,0,.2,0,.8.2,1.4.5,2.1.2.3.3.5.3.9,0,0,0,0,0,0,0,0-.1,0-.2,0-.3-.7-.8-1.4-.9-2.2,0-.4,0-.8.1-1.1Z"/>
    <path class="st2" d="M11.5,49.2c0,.7-.2,1.3-.6,1.9,0,0-.2.2-.3,0-.1,0-.2-.2-.1-.3.2-.6.4-1.2.8-1.6,0,0,.1,0,.2,0Z"/>
    <path class="st2" d="M25.9,58.3c-.4.4-.8.5-1.3.7,0,0-.2,0-.4,0,.4-.7.8-1.2,1.5-1.7,0,.2,0,.2,0,.3-.2.3-.4.6-.5.9h0c.1,0,.2,0,.3,0,.1,0,.3,0,.4,0h0Z"/>
    <path class="st2" d="M14.3,52.4c.2.1.2.3.2.5.1.5.2.9.3,1.4,0,.3.3.3.5.4,0,.2-.1.2-.3.3-.2,0-.3,0-.4-.2,0,0,0-.1-.1-.2-.1-.6-.3-1.3-.3-1.9,0,0,0-.2,0-.2Z"/>
    <path class="st2" d="M37.5,56.8c-.5.3-1,.7-1.4,1.1-.1,0-.2,0-.3-.1.1-.2.3-.3.5-.5.5-.4,1-.8,1.5-1.2,0,0,.2-.1.3,0,0,0,0,.2,0,.3h0c0,0-.1,0-.2.2h0c0,0-.1,0-.2.1h0c0,0-.1,0-.2.1h0Z"/>
    <path class="st2" d="M31,46.9c0,.2,0,.4,0,.4-.2.4-.5.8-.8,1.2-.2.3-.5.6-.5,1,0,0,0,0-.1,0,0,0-.1,0-.1,0,0-.1,0-.2,0-.3,0-.2.2-.4.3-.5.2-.3.4-.5.6-.8.2-.3.4-.5.7-.9Z"/>
    <path class="st2" d="M31.1,55.3c-.9.7-1.7,1.5-2.7,2,0-.1,0-.2,0-.2.8-.7,1.7-1.3,2.6-1.8,0,0,.1,0,.2,0h0Z"/>
    <path class="st2" d="M10.4,53.3c-.6-.4-.7-.8-.9-1.2-.3-.8-.3-1,0-2,.2.3,0,.5,0,.7,0,.3,0,.6.1.8,0,.2.2.5.3.7,0,.2.2.4.4.8Z"/>
    <path class="st2" d="M23.2,56.4c-.2.2-.4.5-.6.7-.2.2-.5.5-.5.8,0,0-.2,0-.2,0,0,0-.1-.1-.1-.2,0-.2,0-.3.2-.5.3-.4.7-.8,1.3-.9Z"/>
    <path class="st2" d="M28,58.2c-.2.3-.5.4-.9.5-.1,0-.3,0-.3-.2,0-.2.1-.3.2-.4,0,0,.2,0,.2,0,.2.3.4.1.6,0,0,0,0,0,.2,0Z"/>
    <path class="st2" d="M25.3,49.3c-.2.6-.4,1-.7,1.4,0,0-.1,0-.2,0,.2-.6.5-1,1-1.4Z"/>
    <path class="st2" d="M29.2,58.2c.4-.3.7-.5,1.2-.6,0,0,.1,0,.2.1,0,0,0,.1,0,.1-.4.2-.8.4-1.3.4Z"/>
    <path class="st2" d="M14.1,50.8c0,.5-.4.9-.6,1.3,0,0-.1,0-.1,0,0,0,0,0,0-.1.1-.4.4-.8.7-1.2,0,0,.1,0,.2,0h0Z"/>
    <path class="st2" d="M25.2,42.5c-.1.4-.3.9-.4,1.3,0,0-.2-.1-.2-.2,0-.4.2-.8.5-1.1,0,0,0,0,0,0h0Z"/>
    <path class="st2" d="M38,56.4c.1,0,.2,0,.3,0,0,0,0,0,0,0-.3.3-.7.5-1.1.7h0c0-.1,0-.2,0-.3h0c0,0,.1,0,.2-.1h0c0,0,.1,0,.2-.1h0c0,0,.1,0,.2-.1h0Z"/>
    <path class="st2" d="M34,58.3c.3-.4.7-.7,1.2-.9,0,0,0,0,0,0-.4.6-.6.7-1.2.9,0,0,0,0,0,0Z"/>
    <path class="st2" d="M33.7,57.4c0,.4-.4.6-.7.9.1-.4.2-.5.8-.8h0Z"/>
    <path class="st2" d="M35.4,57.3c0-.3.3-.5.6-.6h0c0,.3-.3.5-.6.6h0Z"/>
    <path class="st2" d="M30.9,54c0,.3-.2.4-.5.5,0,0,0-.2,0-.2.1-.1.2-.3.5-.3h0Z"/>
    <path class="st2" d="M37,57.5c-.1.3-.3.5-.6.7,0,0,0,0,0,0,.1-.3.4-.4.6-.6h0Z"/>
    <path class="st2" d="M9.1,45.2c0,0,0,.2-.1.2,0,0-.1,0-.1,0,0,0,0-.2,0-.2,0,0,0-.1.2-.2,0,0,.1,0,.2.1Z"/>
    <path class="st2" d="M32.3,42.8c0,0,.1-.2.2-.3,0,0,0,0,0,0,0,0,0,.1,0,.1,0,0-.2.2-.2.2,0,0,0,0,0,0Z"/>
    <path class="st2" d="M19.4,53.8c0,.2,0,.5-.3.6h0c0-.2,0-.5.3-.6h0Z"/>
    <path class="st2" d="M33.8,57.4c0-.2.2-.4.4-.4h0c-.1.2-.2.4-.4.4h0Z"/>
    <path class="st2" d="M33.6,58.6c-.2.2-.4.3-.6.2h0c.2,0,.4-.3.6-.2h0Z"/>
    <path class="st2" d="M33.4,41.5s0,0,.1-.1c0,0,0,0,.1,0,0,0,0,0-.1.1,0,0-.1,0-.2,0h0Z"/>
    <path class="st2" d="M17.1,56.3s0,0,0-.1c0,0,.1,0,.2,0,0,0,0,.1,0,.1,0,0,0,0-.1,0Z"/>
    <path class="st2" d="M36,56.7c0,0,0-.1,0-.2,0,0,0,0,0,0,0,0,0,.1,0,.1,0,0-.1,0-.2,0h0Z"/>
    <path class="st2" d="M19.4,53.8c0,0,0-.2,0-.3,0,0,0,0,0,0,0,0,0,0,0,.1,0,0-.1.1-.2.2h0Z"/>
    <path class="st2" d="M31.1,53.9c0,0,0-.1,0-.2,0,0,0,0,0,0,0,0,0,.1,0,.1,0,0-.1,0-.2,0h0Z"/>
    <path class="st2" d="M25.2,42.5c0,0,0-.2,0-.2,0,0,0,0,.1,0,0,0,0,0,0,0,0,0,0,.1-.1.2h0Z"/>
    <path class="st2" d="M25.8,58.2c.1-.1.3,0,.4,0h0c-.1,0-.3,0-.4.1h0Z"/>
    <path class="st2" d="M14.1,50.8s0,0,0-.1c.1.1,0,0,0,.1h0Z"/>
    <path class="st2" d="M19.3,49.8c0,.1,0,.3-.2.3,0,0,0,0,0,0,0-.1,0-.3.2-.3h0Z"/>
    <path class="st2" d="M32.3,48.9s0,0,0-.1c0,.1,0,0,0,.1h0Z"/>
    <path class="st2" d="M25.6,45.8c0,0,.1-.2.2-.3h0c0,0-.1.2-.2.3h0Z"/>
    <polygon class="st2" points="26.2 58.2 26.3 58.1 26.3 58.1 26.2 58.2"/>
    <path class="st2" d="M33.8,58.4c0,0-.1.1-.2.2h0c0-.1,0-.2.2-.1h0Z"/>
    <path class="st2" d="M33.8,58.5c0-.1,0-.2.2-.2,0,0,0,0,0,0,0,.1,0,.2-.2.1h0Z"/>
    <path class="st2" d="M35.4,57.3c0,.1,0,.2-.2.1,0,0,0,0,0,0,0-.1,0-.2.2-.1,0,0,0,0,0,0Z"/>
    <polygon class="st2" points="33.4 41.5 33.4 41.5 33.4 41.5 33.4 41.5"/>
    <path class="st2" d="M37,57.5c0,0,.1,0,.2-.1h0c0,0-.1,0-.2.1h0Z"/>
    <path class="st2" d="M37.2,57.3c0,0,.2-.1.2-.2h0c0,0-.2,0-.2.2h0Z"/>
    <polygon class="st2" points="34.2 57 34.2 57 34.2 57 34.2 57"/>
    <polygon class="st2" points="34.6 56.5 34.5 56.5 34.6 56.5 34.6 56.5"/>
    <path class="st2" d="M34.8,56.4c0,0-.2,0-.3.1h0c0,0,.2,0,.2-.1h0Z"/>
    <polygon class="st2" points="13.2 54.1 13.2 54.1 13.1 54.1 13.2 54.1"/>
    <polygon class="st2" points="34.8 56.4 34.8 56.3 34.8 56.4 34.8 56.4"/>
    <path class="st2" d="M31.1,55.3c0,0,.2,0,.2-.1h0c0,0-.2,0-.2.1h0Z"/>
    <polygon class="st2" points="31.4 55.2 31.4 55.1 31.4 55.2 31.4 55.2"/>
    <path class="st2" d="M39,55c0,0-.1,0-.2,0,0,0,0,0,0-.1,0,0,0,0,0,0Z"/>
    <path class="st2" d="M38.9,54.9c0,0,.1-.1.2,0h0c0,0-.1.1-.2.2,0,0,0,0,0,0Z"/>
    <path class="st2" d="M30.9,54c0-.1,0-.2.2-.1h0c0,0,0,.2-.2.1h0Z"/>
    <path class="st2" d="M39.2,54.8s0,0,0,0c0,0,0,0,0,0h0Z"/>
    <polygon class="st2" points="29.3 52.6 29.3 52.7 29.3 52.7 29.3 52.6"/>
    <polygon class="st2" points="19.3 49.8 19.4 49.8 19.3 49.8 19.3 49.8"/>
    <polygon class="st2" points="25.6 45.8 25.6 45.8 25.6 45.8 25.6 45.8"/>
    <polygon class="st2" points="25.8 45.5 25.9 45.4 25.9 45.5 25.8 45.5"/>
    <path class="st2" d="M21.2,42h0s0,0,0,0Z"/>
    <polygon class="st2" points="33 42 33 42 33 42 33 42"/>
    <polygon class="st2" points="33 42 33 42 33 42 33 42"/>
    <path class="st2" d="M43.8,48.5c-.2,0-.2-.1-.2-.2,0-.5.2-1,.3-1.5.1,0,.3,0,.3-.1,0-.3.2-.6.3-.9,0-.2.1-.4.2-.6,0,0,.1-.1.1,0,0,0,.2,0,.2.1,0,.5,0,.9-.2,1.3-.3.6-.6,1.3-.9,1.9,0,0,0,0-.1.1Z"/>
    <path class="st2" d="M38,39.6c0,0,0,.2,0,.2,0,.2,0,.3-.2.5-.4.7-.7,1.3-1,2,0,0-.1.1-.2.2,0-.1,0-.2,0-.3.2-1,.9-1.8,1.5-2.7Z"/>
    <path class="st2" d="M41.4,54.4c.4-.6.8-1.1,1.3-1.5,0,0,.1,0,.2,0,0,0,0,.1,0,.1-.4.4-.7.8-1.1,1.2,0,0-.2,0-.4.1Z"/>
    <path class="st2" d="M45.5,50.4h0s0,0,0,0Z"/>
    <path class="st2" d="M40.1,7.9c.3-.2.6-.4.9-.7,0,0,.2,0,.2,0,0,0,0,0,0,.1,0,0,0,.2-.1.2-.6.5-1.1.9-1.7,1.4-.1.1-.2.2-.5.2,0-.2,0-.5,0-.7,0,0-.1,0-.2,0-.2,0-.4,0-.5-.1-.1-.2-.1-.4,0-.6.1-.2.2-.5.4-.7-.2,0-.3-.1-.5-.2-.1,0-.2-.2-.3-.2-.2,0-.4.1-.6.2h0c0-.2,0-.5.2-.8-.4-.3-.8-.1-1.1,0-.4.2-.7.2-1.1.2,0,0-.1,0-.2,0-.3,0-.4-.2-.4-.5,0-.2.2-.3.4-.3.6.2,1.2,0,1.6-.4.2-.1.3-.3.5-.4.1-.1.2-.3.4-.5.3,0,.4.2.4.3,0,.2-.1.4-.2.7.2,0,.4.1.6.2.1,0,.3-.2.4-.3,0,0,.2,0,.2,0,0,0,0,.2,0,.3,0,.2-.2.3-.3.4,0,0,0,.2,0,.2,0,0,.2.1.2,0,.3,0,.5-.1.8-.2,0,0,.2,0,.3,0,0,0,.1,0,.1,0,0,0,0,.1,0,.2-.2.3-.5.5-.7.8,0,0,.1,0,.2,0,.6,0,.6,0,.6.5,0,.1,0,.3,0,.4h0s0,0,0,0Z"/>
    <path class="st2" d="M30.9,2.8c.3,0,.5,0,.7-.2,0-.1.2-.2.3-.3.3-.2.5,0,.6.1,0,.1,0,.3.2.4,0,.1.3.2.1.4-.1.1-.3.1-.5,0,0,0-.2,0-.2,0-.3-.2-.5-.1-.6.1,0,.2-.1.3-.2.5,0,0-.2.1-.3.1-.1,0-.2-.1-.2-.2,0-.3,0-.6.1-.9Z"/>
    <path class="st2" d="M39.5,11.9c.3-.2.6-.5.9-.7.3-.2.6-.5.8-.7.2,0,.2.2.1.3-.1.2-.3.4-.5.6-.4.4-.8.8-1.2,1.2-.1.1-.3.2-.5.4,0,0-.1,0-.2,0,0,0,0-.1,0-.1,0-.3.4-.4.4-.7h0c.1,0,.2,0,.2-.1h0Z"/>
    <path class="st2" d="M39.4,12c-.1,0-.2,0-.3,0-.1,0-.2-.1-.2-.2,0,0,0,0,0,0,.5-.8,1.1-1.5,2-2,0,0,0,0,0,0h0c0,.1,0,.3-.1.4-.1.2-.3.3-.5.5-.4.3-.6.7-.7,1.2h0c0,0-.2,0-.2.1h0Z"/>
    <path class="st2" d="M40.5,9.1c-.4.7-.7,1.1-1.3,1.5,0,0,0-.1,0-.1.4-.5.8-1.1,1.4-1.4h0Z"/>
    <path class="st2" d="M41.8,5.9s0,0,0,0c-.2.3-.5.4-.8.4,0,0,0,0,0,0,0,0,0-.1,0-.2.2-.2.4-.3.6-.5,0,0,.2,0,.2,0,0,0,0,0,0,.2Z"/>
    <path class="st2" d="M40.4,9.1c0,0,0-.1,0-.2,0,0,0,0,0,0,0,0,0,0,0,0,0,0,0,.1-.1.2h0Z"/>
    <path class="st2" d="M37.3,6.7c0,0-.1,0-.2.1h0c0,0,.2,0,.2,0h0Z"/>
    <polygon class="st2" points="37.1 6.8 37.1 6.9 37.1 6.8 37.1 6.8"/>
    <path class="st2" d="M40.9,9.8s0,0,0,0c0,0,0,0,0,0h0Z"/>
    <path class="st2" d="M37.8,19.7s0,0,0-.1c0,.1,0,0,0,0h0Z"/>
    <path class="st2" d="M37.6,20c0,0,.2-.2.3-.3h0c0,.1,0,.2-.2.3h0Z"/>
    <path class="st2" d="M37.6,20c0,.1,0,.3-.2.3h0c0,0,.1-.2.2-.3h0Z"/>
    <path class="st2" d="M37.2,20.7c0-.1.1-.2.2-.4h0c0,.1,0,.3-.2.3h0Z"/>
    <path class="st2" d="M36.9,20.8c0,.2,0,.3-.2.3,0,0,0,0,0,0,0-.1,0-.3.2-.3h0Z"/>
    <path class="st2" d="M37.2,20.7c0,0-.1.1-.2.1h0c0,0,.2,0,.2-.1h0Z"/>
    <path class="st2" d="M35.9,22s0,0,0,.1c0,0,0,0,0,0,0,0,0,0,0,0h0Z"/>
    <path class="st2" d="M35.2,33.1s0,0,0,0c0,0,0,0,0,0h0Z"/>
    <path class="st2" d="M27,35.2s0,0,0,0c0,0,0,0,0,0,0,0,0,0,0,0h0Z"/>
  </g>
</svg>