<?xml version="1.0" encoding="UTF-8"?>
<svg id="Layer_2" xmlns="http://www.w3.org/2000/svg" version="1.1" viewBox="0 0 3220.5 896.4">
  <!-- Generator: Adobe Illustrator 29.3.1, SVG Export Plug-In . SVG Version: 2.1.0 Build 151)  -->
  <defs>
    <style>
      .st0 {
        fill: #fff;
      }

      .st1 {
        fill: #aea07e;
      }
    </style>
  </defs>
  <g>
    <path class="st0" d="M811.5,730.1h36.3v4.6h-36.3v28.5h-4.9v-63.1h42.4v4.9h-37.5v25.1Z"/>
    <path class="st0" d="M920.9,729.2h36.9v4.4h-36.9v24.8h39.8v4.7h-44.5v-63h43.5v4.6h-38.7v24.5h0Z"/>
    <path class="st0" d="M1032.6,729.2h36.9v4.4h-36.9v24.8h39.8v4.7h-44.5v-63h43.5v4.6h-38.7v24.5h-.1Z"/>
    <path class="st0" d="M1144.5,700.1v58.4h35.5v4.6h-40.3v-63h4.9,0Z"/>
    <path class="st0" d="M1364.9,717.3c0,6.5-4,11.5-10.3,13.5,7.9,2.2,12.4,8.5,12.4,15.8,0,13-12.1,16.5-22.9,16.5h-25.8v-63h25.8c10.6,0,20.7,5.2,20.7,17.2h.1ZM1323.2,728.7h21.6c7.6,0,15.5-2.3,15.5-11.3s-8.3-13-16.1-13h-21v24.4h0ZM1323.2,758.4h21c7.9,0,18.1-1.9,18.1-11.9s-9-13.3-17.5-13.3h-21.6v25.2Z"/>
    <path class="st0" d="M1439.1,729.2h36.9v4.4h-36.9v24.8h39.8v4.7h-44.5v-63h43.5v4.6h-38.7v24.5h-.1Z"/>
    <path class="st0" d="M1561.3,704.5h-22.8v-4.3h50.4v4.3h-22.8v58.6h-4.9v-58.6h.1Z"/>
    <path class="st0" d="M1667.8,704.5h-22.8v-4.3h50.4v4.3h-22.8v58.6h-4.9v-58.6h.1Z"/>
    <path class="st0" d="M1763.8,729.2h36.9v4.4h-36.9v24.8h39.8v4.7h-44.5v-63h43.5v4.6h-38.7v24.5h-.1Z"/>
    <path class="st0" d="M1921,763.1h-6.4l-21.8-23.8h-17.2v23.8h-4.9v-63h27.7c13.7,0,20.6,9.8,20.7,19.6,0,10.3-6.7,19.3-20.4,19.3l22.2,24.1h.1ZM1875.7,734.7h22.3c11,0,15.8-6.2,15.9-15,0-7.4-5-15-15.4-15h-22.9v30.1h0Z"/>
    <path class="st0" d="M2069.2,700.1v58.4h35.5v4.6h-40.3v-63h4.9,0Z"/>
    <path class="st0" d="M2168.5,763.1v-63h4.8v63h-4.8Z"/>
    <path class="st0" d="M2295.3,700.1l-25.9,63.2h-5.2l-25.9-63.2h5.2l23.3,57.6,23.3-57.6h5.2,0Z"/>
    <path class="st0" d="M2365.1,729.2h36.9v4.4h-36.9v24.8h39.8v4.7h-44.5v-63h43.5v4.6h-38.7v24.5h-.1Z"/>
    <path class="st0" d="M2595.8,717.3c0,6.5-4,11.5-10.3,13.5,7.9,2.2,12.4,8.5,12.4,15.8,0,13-12.1,16.5-22.9,16.5h-25.8v-63h25.8c10.6,0,20.7,5.2,20.7,17.2h.1ZM2554.2,728.7h21.6c7.6,0,15.5-2.3,15.5-11.3s-8.3-13-16.1-13h-21v24.4h0ZM2554.2,758.4h21c7.9,0,18.1-1.9,18.1-11.9s-9-13.3-17.5-13.3h-21.6v25.2Z"/>
    <path class="st0" d="M2670,729.2h36.9v4.4h-36.9v24.8h39.8v4.7h-44.5v-63h43.5v4.6h-38.7v24.5h-.1Z"/>
    <path class="st0" d="M2792.2,704.5h-22.8v-4.3h50.4v4.3h-22.8v58.6h-4.9v-58.6h.1Z"/>
    <path class="st0" d="M2898.7,704.5h-22.8v-4.3h50.4v4.3h-22.8v58.6h-4.9v-58.6h.1Z"/>
    <path class="st0" d="M2994.7,729.2h36.9v4.4h-36.9v24.8h39.8v4.7h-44.5v-63h43.5v4.6h-38.7v24.5h-.1Z"/>
    <path class="st0" d="M3151.9,763.1h-6.4l-21.8-23.8h-17.2v23.8h-4.9v-63h27.7c13.7,0,20.6,9.8,20.7,19.6,0,10.3-6.7,19.3-20.4,19.3l22.2,24.1h0ZM3106.6,734.7h22.3c11,0,15.8-6.2,15.9-15,0-7.4-4.9-15-15.4-15h-22.9v30.1h0Z"/>
  </g>
  <g>
    <polygon class="st0" points="2719.4 187.9 2980.1 197.6 2719.4 207.4 2719.4 187.9 2719.4 187.9"/>
    <polygon class="st0" points="1171.1 187.9 910.4 197.6 1171.1 207.4 1171.1 187.9 1171.1 187.9"/>
  </g>
  <g id="_x32_kHoMe">
    <g>
      <path class="st1" d="M383.2,190.9c-10.1,17.2-25.5,29.4-33.9,46.8-2.9,6.1-5.4,11.9-5.9,18.6-.4,5.3-.9,10.7-1.1,16-.2,6.1-3.2,10-8.8,12.1-.8.3-1.6.8-2.5,1-13.5,2.8-24.4,11-35.2,18.5-12.6,8.8-23.6,19.9-33.6,31.9-13.9,16.6-24.4,35.1-32.1,55.1-6.1,16-9.6,32.7-9.4,50.1.2,12.6.2,25.1,3.3,37.6,2.3,9.3-2,13.1-11.6,11.4-16.8-3-32.8-8.2-46.9-18.1-3-2.1-6.4-3.8-9.6-5.7-1.1-.6-2.3-1.1-3.2-1.9-2.7-2.5-6.6-5-5.2-9.2,1.4-4.2,6-3.3,9.3-3,11.7,1.1,22.5,4.9,32.7,10.8,3.3,1.9,7.6,6.2,10.2,4.3,2.9-2.1.8-7.5.2-11.5-1-6.2-4.6-9.6-10.4-12.3-18.8-8.7-38.1-9.6-57.9-5.2-13,2.9-24.5,9.4-35.9,16.1-7.4,4.3-14.7,8.6-22.6,13.1,12.9,8.7,20.9,21.3,29.6,33.2,20.7,28.6,53.3,29.3,76.7,23.7.8-.2,1.5-.6,2.8-1.2-6.4-3.2-12.9-4.8-19.1-6.6-15.2-4.4-27-14.1-38.7-24.1-3.8-3.3-6.8-7.4-8.5-12.2-1.5-4.3-.2-6.5,4.2-7.2,4.9-.8,9.3.5,13.1,3.4,9.8,7.5,21,12.8,32,18,14.5,6.8,29.8,12.5,46.2,13.5,3.4.2,6.7.8,9.8,2.3,7.2,3.4,7.8,8.7,1.7,14-13.2,11.3-28.4,18.1-45.3,21.5-20.6,4-41,4.6-60.9-3.7-16-6.6-28.5-17.6-39-31-8.5-10.9-18.1-20.7-28.8-29.3-4.2-3.4-10.2-3.6-14-8.3-2.3-2.9-6-4.6-4.9-9.2s5.8-4.5,8.7-5.4c12.1-3.7,23.5-8.3,33.6-16.2,2.7-2.1,6.9-2.4,9.7-4.7,12.9-10.8,28.8-14.9,44.2-20.1,2.3-.8,4.6-1.6,7.8-2.7-13.5-8.5-22.2-20.6-30.7-32.8-3.2-4.6-6.6-9.1-7.4-15.1-1-7.4-5.7-13.6-8.6-20.5-3-7.1-2.3-14.1-1.4-21.1.3-2.4,3.4-3.7,6.5-3.1,6.2,1,11.8,3.4,17.5,5.8,14.5,5.9,29.7,6.9,45,5.7,13.8-1.1,27.6-3.1,42.1-.4-2.4-6.3-6.2-11.1-9.4-16.2-7.6-12.4-10.3-26.3-13.4-40.2-1.8-8.2-2.5-16.6-4.3-24.7s-3.2-16.2-4.6-24.4c-1.3-7.8-6.1-14.8-8.4-22.5-.6-2-1.2-4.3-1.8-6.3-1.7-6,1.8-9.2,8.2-8.4,8.3,1,15.5,4.7,22.8,8.4,6.6,3.4,14.3,4,21.6,5.8,14.5,3.7,29.5,4.8,43.7,9.7,9.3,3.2,17.9,7.7,26.1,13.3,1.2.8,2,2.9,3.8,2s.8-2.9.9-4.4c1.3-17.6,6.5-34,15.3-49.2,8.2-14.2,19.7-26,30.9-38,12.4-13.4,23.9-27.7,32.9-43.6,5.3-9.4,9.1-19.6,13.1-29.7,1.6-3.9,5-7.9,9.6-8.5,4-.5,6.1,3.2,8.1,6.4,2.3,3.8,3.3,7.9,4.5,12,2.1,7.2,5.2,13.7,10.9,19,2.4,2.2,2.9,5.9,4.4,8.8,2.9,5.7,6.7,10.4,10.6,15.2,10.8,13.4,23,25.7,34,38.9,13.2,15.8,23.3,33.6,27,54.4,1.2,6.6,1.6,13.3,2.4,20.7,13.7-11.8,29.6-17.5,46.4-21.2,12.1-2.7,24.3-4.9,36.4-7.8,6.8-1.6,13.5-3.5,19.8-6.9,4.7-2.5,9.6-4.6,14.9-5.7,6.7-1.5,9.7,1.8,8.7,8.6-.9,6.2-3,11.9-5.6,17.5-5.3,11.4-6.2,23.8-8.4,35.8-2.9,16.2-4.9,32.4-10.4,48.1-4.1,11.7-10.6,21.8-17.5,33.2,10.3-1.5,19.6-1.9,28.8-1.3,12.6.9,25.1,2.5,37.8,1.2,9.7-1,18.6-3.8,27.1-8.7,3.4-2,8.1-2.6,12.2-2.7,4-.1,5.8,3.4,6.1,6.9.6,6.9-.7,13.6-4.1,19.8-.9,1.7-1.5,3.7-1.9,5.5-5.9,23.9-19.4,42.7-38.6,57.7-1.3,1-2.4,2.1-4.2,3.5,8,2.4,15.3,4.5,22.4,6.7,16.3,5.1,29.8,15.5,44.2,24.1,6.8,4,13.5,8.3,21.2,9.6,5.4.9,9.9,2.7,13.6,6.5,3.9,4,3.7,6.7-.8,9.9-1.7,1.2-3.5,2.4-5.4,3.4-16.9,8.2-28.3,22.4-39.6,36.6-7.5,9.5-16.4,17-26.6,23.5-34,21.7-90,13.9-117.9-11.7-6.1-5.6-5.7-10.4,1.8-13.8,3.3-1.5,6.7-2.5,10.3-2.3,7.1.3,13.6-2.1,20.3-3.8,20.9-5.2,38.8-16.4,56.8-27.4,3.9-2.4,7.9-4,12.6-3.9,6.2.2,7.8,2.9,5.2,8.8-1.6,3.5-3.9,6.4-6.5,9-16.4,16.6-36.3,26.6-59.7,31.4,4.9,3.4,10.2,3.9,15.2,4.6,30.7,3.9,57.8-10.2,72.8-37,3.7-6.7,9.3-12.1,15.6-16.6,4.6-3.3,4.5-6.2-.2-8.9-13.6-7.7-26.7-16.4-41.4-22.1-25.7-9.9-50.9-8.2-75.5,4-1.6.8-2.9,1.7-3,3.9-.4,5.9-1.2,11.7-.7,17.9,3.4-.3,6.1-1.9,8.6-3.7,8.5-5.9,18.5-8.3,28.1-11.2,3.8-1.2,7.8-1.3,11.7-.6,4,.8,5.2,3.4,3.3,7.1-1.2,2.4-3.1,4.5-5.5,5.7-10.3,5.3-19.5,12.4-30.3,16.9-8.6,3.5-17.5,6-26.6,7.8-11.6,2.3-15.7-1.4-12.9-13.2,2.8-11.8,3.2-23.6,2.7-35.5-2.3-51.3-24.8-92.8-62.3-126.8-14.5-13.1-30.6-23.8-49.4-29.9-5.9-1.9-9-5.7-9-12.3.2-21.9-8.6-40.4-22.3-56.9-6.7-8.1-14.6-15.1-21.2-24.4h.2ZM317.1,269.1c.2-2.1.3-2.8.3-3.4,2-25.6,12.2-47.2,30.4-65.3,12.2-12.1,23.3-24.9,28.6-41.8,1-3.3,3.3-6,7.3-6.2,3.6-.2,6,2.2,7.7,5,1.1,1.8,1.8,3.9,2.4,5.9,1.5,4.8,3.6,9.4,6.8,13.2,7.1,8.5,13.5,17.4,21.2,25.4,13.7,14.3,23.1,31,27,50.7,1,5.2,1.8,10.6,4,15.8,7-8.4,11.1-19.5,11.2-31.4.2-25.1-9.6-46.3-26.2-64.7-18.9-21-39.2-40.8-53.2-66.1-3.8,5.7-7.2,11.1-10.9,16.3-13.2,18.7-29.2,34.9-44.5,51.9-14.9,16.6-23.8,35.8-24.8,58.2-.6,13.2,3,25.3,12.8,36.5h0ZM204.5,228.1c2.7,2.4,5.5,4.8,8.2,7.3,9.6,8.5,19,17.3,24.4,29.4,1.5,3.4,3,6.9,2.4,10.8-.4,3-1.6,5.4-4.6,6.7-3,1.3-5.4.5-7.9-1.5-5.4-4.5-9.5-10.1-13.3-15.9-4.5-7-8.6-14.4-14.4-20.5-2.2-2.3-4.3-4.9-8-6.1,3,22.9,6.1,45.3,14.9,66.4,5.4,13,12.8,24.6,23.1,34.3.9.9,1.9,3,3.6.6,3.7-5.2,7.5-10.4,11.3-15.5,2.2-2.8,1.2-4.8-1.3-6.7-3.1-2.4-6.3-4.7-9.2-7.3-2.2-2-2.9-4.5-1.1-7.2,1.9-2.8,4.8-2.4,7.2-1.1,3.1,1.7,6.3,3.6,8.6,6.2,3.9,4.3,7.5,3.6,10.9,0,5.6-6,11.7-11.4,18.4-16.2,3.9-2.8,4.6-6.5,1.8-10.7-3.1-4.6-6-9.2-8.9-13.9-.7-1.1-2.4-2.2-.8-3.7,1.1-1,2.6-.9,4.1-.6,2.3.5,3.5,2.4,4.5,4.3,1.7,3.1,3.1,6.4,4.9,9.5,1.3,2.3,3,4.2,6,2.9,3-1.3,2.9-3.9,2.3-6.4-1.5-5.6-4.8-10.3-8.8-14.4-9-9.5-19.7-16.1-31.8-21-14.9-6-30.5-7.5-46.6-9.4v-.3ZM499.7,263.9c-4.5,6.3-9.3,12.1-12.3,19-.7,1.6-2.6,3.5-.2,5.2,9.2,6.5,16.4,15.3,25.6,21.8,2,1.4,3.1,1.4,4.7-.6,2.9-3.9,6.7-6.9,11.5-8.2,2.5-.7,5.1-.7,6.7,1.8,1.6,2.5.8,4.9-1.2,6.8-2.7,2.6-5.4,5.2-8.4,7.4-3.5,2.4-3.3,4.7-1.1,7.9,3.4,5,8,9.1,10.9,14.5,1.3,2.3,2.2.4,3.1-.4,4.8-4.3,8.8-9.3,12.4-14.6,12-17.8,17.9-37.8,21.7-58.6,1.7-9.1,3.3-18.2,4-28.4-10,7.6-17.5,15.9-22.8,26.2-3.2,6.2-6.5,12.3-12,16.9-3.1,2.6-6.6,3.8-10.3,1.3-3.8-2.5-5.5-6.1-4.3-10.6.6-2.2,1.4-4.4,2.6-6.4,6.3-10.2,12.8-20.1,22.7-27.4,3.8-2.8,7.7-5.6,10.4-10.5-15,1.7-28.9,5.2-42.6,9.4-16.8,5.2-30.5,15.1-41.2,29.1-1.9,2.5-3.8,5.2-3.6,8.7.1,2.8,1.7,4.6,4.2,5.6,3,1.2,2.8-2,3.7-3.3,2.1-2.9,3.5-6.2,5.7-9,2.3-3,5.3-5.2,10-3.6h0ZM575.8,350.5c-8.2.1-14.6.1-20.8,2-9.3,2.8-10.6,6.7-5.5,14.9,2.1,3.3,4.5,6.3,5.8,10.1,5,14.3,9.1,28.8,11.4,43.8.5,3,1.5,2.9,3.8,2.2,18.4-5.8,36.1-13.3,51.5-25.2,14.5-11.2,25-25.2,29.2-43.4.8-3.4,1.3-5.3-3.7-3.8-14.7,4.5-29.8,4.1-45,2.7-9.6-.9-18.8-4.2-26.8-3.4h0ZM201.7,425.4c.8-20.8,6.6-39.3,15.9-56.8,4.7-9,2.9-13.2-6.9-16.1-10.9-3.2-22-2.3-32.9-.7-18.9,2.8-37.7,6.2-56.5-.2-3.9-1.3-5,0-3.8,4.1,7.6,25.1,22.7,43.6,46.9,54.3,12,5.3,24.8,8.8,37.2,15.5h.1Z"/>
      <path class="st1" d="M385.1,664.6c-4.8-4.5-9-9.5-14.2-13.6-5.1-4-10.4-7.6-16.5-9.6-15.2-5-30.3-10.4-46-13.8-17.1-3.7-34-1.4-50.7,3.3-11.7,3.3-22.8,7.8-33.7,13.2-9.2,4.6-18.7,8.9-28.5,12-9.1,2.9-18.7,4.2-28.1,6.1-2.5.5-5,0-7.3-.9-3.2-1.3-6.4-2.8-6.4-7s2.5-6.2,5.6-7.8c1.2-.6,2.7-1.3,4-1.2,12.9,1.1,23.5-5.7,34.2-10.8,20.8-10,40.7-22.1,65.4-25.2-8.8-6.4-16.4-12.2-23-19.2-5.6-5.9-10.5-12.1-13.6-19.7-6.3-15.8,1.3-29.3,18-32.2,13-2.2,25.1,1.3,37.2,5.2,11,3.5,21.7,7.8,31.9,13.4,5.2,2.8,10.6,5,16.6,5.6,7.5.7,12.4-2.1,14.7-9.4,11.6-36.3,4.7-68.6-21.6-96.2-11.4-12-23.4-23.5-32.9-37.2-9.3-13.3-16.8-27.3-16.3-44.3.3-9.5,3.5-17.4,10.2-24.4,11.1-11.6,24.5-20.1,37.4-29.2,8.7-6.2,17.5-12.3,25.4-19.5,8.2-7.5,13.4-16.5,15.8-27.3,2.8-12.9,6.3-25.6,13.2-37,5-8.4,10.8-8.7,16.3-.6,4.2,6.1,6.3,13.1,7.9,20.3,2.3,9.9,5.5,19.5,9.5,28.8,3.5,8.1,8.8,14.6,16,19.6,11.9,8.2,23.3,17.1,35.5,24.7,7.1,4.4,13.5,9.8,19.5,15.7,14.4,14,17.2,30.5,10.6,49-8.2,22.9-24.1,40.2-41,56.6-15.1,14.6-26.5,31.2-30.4,52.2-3.1,16.3-1.8,32.3,3.8,47.9,3.1,8.7,8.2,11.6,17.3,10.2,5.7-.9,10.8-3.4,15.9-6.1,17.4-9.4,36-15.1,55.5-18.2,5.5-.9,11-.3,16.4,1.3,11.4,3.4,17.3,13,15.2,24.7-2.4,12.9-9.8,22.7-19.7,30.9-5.6,4.6-11.5,8.9-18.2,14,3.3.7,5.7,1.4,8.1,1.8,17.6,3.4,33.1,11.8,48.8,19.7,9.8,4.9,20,9.3,30.1,13.7,2.8,1.2,5.8,1.3,8.9,1.1,6.8-.4,13,4.1,13,9.1s-6.3,9.5-13,8.1c-11.4-2.4-23.1-3.7-34.2-7.7-13.8-5-26.6-11.9-40-17.6-28.8-12.2-57.9-15.3-87.9-4.5-7.2,2.6-14.6,4.5-22,6.7-13.1,3.9-20.6,9.6-32.9,25.3h.2ZM520.5,555.4c-11.8,2.9-22,7.7-32.1,12.5-14.4,6.9-28,15.6-43.6,20-22.7,6.4-34.1,1-43-20.8-9.5-23.4-10.7-47.8-7.6-72.5,2.6-20.4,11.1-37.7,27-51.2,8-6.8,16-13.7,23.5-21,10.5-10.2,20.1-21.2,25.1-35.4,3.2-9.1,1.6-17.1-5.2-24.1-4.1-4.2-8.5-8.2-13.5-11.2-13-7.9-24.4-17.9-35.7-28-14.9-13.3-25.1-29-27.5-49.2-.7-5.6-2.1-11.2-3.2-17.1-2,3-2.3,6.3-2.7,9.3-3.5,28.1-16.7,49.9-40.2,66.2-11.9,8.3-23.4,17.4-35,26.3-10.5,8.1-12.9,18.1-8.1,30.4,2.1,5.3,5.1,10.2,8.9,14.5,11.1,12.8,22.5,25.3,35.7,35.9,15.8,12.7,25.5,28.9,29.3,48.8,3.4,17.9,2.6,35.8,0,53.7-2,13.7-5,26.9-13.7,38.2-6,7.9-14,10.7-23.5,9.7-8.6-.9-16.6-3.9-24.4-7.6-15.7-7.5-31.3-15.3-47.1-22.7-5-2.3-10.2-4.2-16.5-4.5,4,7.9,8.8,14.2,14.7,19.7,16.9,15.5,37.2,24.9,58.9,31.4,20.7,6.3,42.4,9.2,61.1,21.7,1.2-7.1,4.5-12.5,8.9-17.3,6.6-7,14.1-9.2,21.6-5.8,9.8,4.5,20.1,5.4,30.3,2.9,25.1-6.3,47.8-17.3,66.6-35.5,4.9-4.7,8.8-10.1,10.8-17.5l.2.2Z"/>
      <path class="st1" d="M229.9,684.5c-12.3,4.6-23.8,9.2-35.6,13-6.1,2-12.8,2.5-19.2,3.4-17.5,2.2-35.1,2.5-52.2-2.1-6.8-1.8-13-5.8-18.3-10.7s-10.6-9.9-13.6-16.6c-8.1-18.1-2.1-41.4,21.1-45.8,8.4-1.6,16.3,2.4,20.5,9.9,3.9,7.1-1,17.9-9,19.6-3.7.8-6.3-.7-7.8-4-.7-1.4-1-3-1.6-4.7-4.6,1.8-5.8,5.1-5.2,9.4.9,6.4,4.5,11.1,9.5,14.9,11.1,8.6,24.1,9.7,37.5,9.6,24.5-.2,47.4-6.7,69.8-16.1,12.9-5.5,26-10.7,39-16,1.6-.7,3.4-1.1,5.1-1.4,14.9-2.4,22.2,5.2,19,19.9-.8,3.9-2.6,7.4-4.4,10.9-2.1,4.1-4.3,8.1-7,13.3,7.5-2.3,13.4-5.5,17.7-10.7,4.2-5,7.9-10.5,11.7-15.9,2.1-3,3.2-6.3,3.5-10,.3-3.3,1.1-6.3,3.7-8.6,5-4.4,10.5-2.8,12.3,3.5,1.5,5.5.9,10.9-.9,16.3-5.8,17.8-17.1,31.7-32.4,41.9-27.2,18.1-57.5,24-89.8,21.1-3.7-.3-7-1.3-7.2-5.2-.2-4,2.5-6.4,6.6-7.4,13-3.1,22.8-9.9,26.9-23.5.8-2.6,0-4.9.4-8.2v.2ZM240.2,706.1c17.3-1.7,33.5-20.6,32.5-37.1-.2-3.2-1.7-2.4-3.4-1.8-5.8,2.2-11.6,4.5-17.4,6.8-2.1.9-3.8,2.4-3.7,4.7.4,9.9-3,18.8-8,27.3h0Z"/>
      <path class="st1" d="M489.7,688.9l-6.9-13.8c-2.6-5.4-3.9-11-3.7-17,.2-5.5,3-9,8.3-10.4,6.7-1.9,12.8-.2,19.2,2,25.3,8.9,49.2,21.7,75.6,27.4,21,4.5,41.8,7,62.3-2.5,6.3-2.9,10.9-7.2,13.5-13.7,1.3-3.2,1.7-6.6.2-9.9-.8-1.8-2-3.9-4-4s-1.5,2.5-2.1,3.8c-2.3,4.7-6,5.9-10.6,3.4-8.1-4.6-9.5-14.8-3.6-21.9,5.1-6.1,11.5-7.7,18.6-6.6,9.6,1.6,16.5,7.6,20.4,16.3,7.5,16.8.5,37.2-16.7,48.5-9.4,6.1-20.1,8.6-30.9,10.6-12.6,2.4-25.4,1.5-37.7-.5-7.4-1.2-15.2-2.3-22.4-5.4-9.1-3.9-19.3-4.6-28.2-9.3-1.3-.7-3-.2-3.1,2.2,0,2,.3,3.8,1.1,5.7,3.8,8.7,10,15,18.3,19.4,3,1.6,6.1,2.8,9.1,4.4,2.6,1.4,6.2,2.6,5.1,6.4-1,3.4-4,5.2-7.8,5.2-10,0-20.1,1.1-29.9-.6-10.1-1.8-20.5-2.1-30.2-6.4-17.5-7.7-34.6-16-46.9-31.4-8.7-10.7-15.2-22.4-14.7-36.8,0-1.6.3-3.2.6-4.7.6-3.1,2.5-5.1,5.6-5.8,3.1-.6,5.6.9,7.5,3.2,1.4,1.7,1.9,3.7,2.4,5.8,4.6,16.9,13.4,30.4,30.3,37.4.6,0,1.2,0,1.8.2-.1-.4-.3-.9-.4-1.3h0ZM527.6,706.3c-3.4-6.1-5.9-12-6.1-18.1-.4-12.2-7.4-17.2-18.3-18.9-1-.2-2.1-.4-3.1-.8-3.4-1.4-4.2-.2-4,3.3.6,15.6,13.8,30.6,31.5,34.6h0Z"/>
      <path class="st1" d="M424.3,724.2c0-5.3-.3-10.7,1.1-15.9,2.6-9.4,9.7-11.7,17.2-5.4,3.2,2.7,5.6,6.2,5.1,10.2-1.2,8.9.1,17.8-1.2,26.6-3.3,22-14.1,39.8-29.6,55.3-8.8,8.7-18.5,16.8-23.3,28.8-1.8,4.5-3.8,8.7-7.8,11.8-3.2,2.4-5.5,1.9-7-1.8-2.6-6.8-6.7-12.7-10.1-19.1-3.1-5.9-8.5-10-13.2-14.4-12.4-11.6-21.9-25.1-29.4-40-2.3-4.6-4.1-9.9-4.3-15.6-.4-9.8,0-19.6-.2-29.4,0-2.7.2-5.3,1.4-7.8,2.5-5.2,7.7-8.5,12.3-7.6,5.9,1.2,7.2,5.9,7.6,10.9.5,7.6.3,15.3.8,23,1.2,16.6,9.5,29.9,20.6,41.7,5.4,5.7,11.3,10.9,17.4,15.8,2.3,1.9,3.6,2.4,5.9-.3,4.5-5.1,9.4-9.8,14.3-14.4,9.9-9.2,16.1-20.7,20.5-33.3,2.1-6.2,1.7-12.7,1.7-19h.2Z"/>
      <path class="st1" d="M383.4,703.4c2.3-2.1,2.6-4.5,3.3-6.6,4.6-13.6,12-25.3,23.6-34.1,3.4-2.6,6.1-6,9.5-8.5,6.9-5.1,12.5-2.6,13.3,5.9.5,5.7.6,11.3,3.6,16.5,1.7,3,.2,5.6-2.3,7.4-3,2.1-6.4,2.4-9.4,0-1.2-1-2-2.5-3-3.8-4,3.1-7,7.1-9.4,11.4-10.6,18.8-18,38.6-20.3,60.2-.2,1.7-.5,3.6-1.3,5.1-1.6,3.1-3.7,5.8-7.7,5.5-3.7-.3-5-3.2-5.8-6.1-1.8-7.4-3.6-14.9-5.1-22.4-3.9-19-11.9-36-23.1-51.8-1.7-2.4-3-2.5-5-.6-1,1-2.3,1.7-3.5,2.5-2.5,1.6-5.4,2.7-7.9.6-2.8-2.3-3-5.7-1.2-8.7,3.1-5.2,4.9-10.3,4-16.6-.8-5.4,5.4-8.1,10.8-5.2,16.4,8.8,32.8,30.6,36.9,49.6v-.2Z"/>
      <path class="st1" d="M180.7,625.4c-14.3-.4-27.1-4.7-38.1-14.3-10.4-9.1-18.6-19.9-23.8-32.6-3.3-8,.9-12.8,9.6-12,7.4.7,11.8,5.4,14.9,11.5,5.3,10.5,13.6,17.6,23.8,22.9,9.4,4.9,19.6,6.2,30,5.6,4.4-.3,8.9-.6,13.3-.7,2.5,0,5.4,0,6.2,3,.8,3.1-1.1,5.8-3.7,7-6.2,3.1-12.2,6.6-19,8.1-4.3,1-8.8,1.5-13.3,1.5h0Z"/>
      <path class="st1" d="M562.3,605.7c8.2,1.1,17,1.4,25.9,0,17.4-3.1,29.4-13.6,37.8-28.5,3.4-6,8-9.9,15-10.6,7.5-.7,12,4.8,8.6,11.5-9.1,18.3-19.9,35.4-40.3,43.2-15.8,6.1-31.5,6.6-46.8-1.9-2.3-1.3-4.8-2.3-7.2-3.5-2.9-1.5-5.1-4-4.3-7.2.7-3.3,4.2-2.7,6.8-2.8h4.5Z"/>
      <path class="st1" d="M505.7,193.1c-8.5-.5-16.4-8.9-15.4-17.1,1.4-11.3,9.2-17.8,18.7-17.1,10.4.8,15.4,7.2,15,17.1-.5,10.8-8.1,17.7-18.3,17.1Z"/>
      <path class="st1" d="M244.1,177c0-9.3,6.6-18,16.3-18s16.6,6.2,16.3,15.6c-.2,9.1-5.1,19.7-15.5,18.8s-16.7-5.6-17.1-16.4h0Z"/>
      <path class="st1" d="M147.7,313.8c-8.3-.3-14.5-6.5-14-15,.6-9.2,5.7-16.3,15.7-15.9,8.9.4,15.4,6.5,14.9,14.8-.6,9.5-5,17.2-16.6,16.2h0Z"/>
      <path class="st1" d="M604.3,297.7c.2-11.3,6.8-14.2,15.8-14.6,7.9-.3,14.4,7.1,13.7,15-1,10.7-5.8,16.1-17.3,16.3-7.3.1-12.6-7.5-12.2-16.7h0Z"/>
      <path class="st1" d="M286.5,762.5c-6.1,0-12.9-7.8-12.6-14.4.4-6.8,8.1-14,15-13.8,6.7.2,14.1,7.7,14.1,14.4s-7.7,13.9-16.5,13.8Z"/>
      <path class="st1" d="M465.5,748.4c-.1-7.9,5.5-14.3,12.7-14.4,8,0,14,5.3,14.3,12.7.3,9.1-5.4,15.9-13.4,15.9s-13.5-5.2-13.6-14.2Z"/>
      <path class="st1" d="M81.2,383.4c9.5.2,12.6,5.1,12.4,12-.3,9.8-5.7,15.7-13.1,15.7s-14.4-7.3-14.3-13.6c.2-8.7,5.9-14.1,15-14h0Z"/>
      <path class="st1" d="M637.4,274c.4-8.8,5-13.7,12.7-13.5,8.9.3,13.7,5.6,13.2,14.4-.5,8.3-6,14.2-13.3,13.7-9.4-.6-12.2-3.4-12.6-14.6h0Z"/>
      <path class="st1" d="M130.4,273.9c0,8.4-4.8,14.4-12,14.5-8.2.1-13.7-5.1-13.8-12.9,0-8.6,5.5-15,13.2-14.9,7.3,0,13.2,4.2,12.6,13.3Z"/>
      <path class="st1" d="M700.6,396.3c.6,10.1-7.2,14.5-12.7,14.5s-12.9-5.5-12.9-13.4,5.9-15.1,13-14.9c7.7.2,12.6,5.5,12.6,13.8h0Z"/>
      <path class="st1" d="M84.9,553.6c9.2-1,12.7,6,13,11.5.4,8.2-5.5,15.1-12.5,15.2-7.3,0-13.6-5.9-13.8-12.9-.2-7.1,6.3-13.8,13.3-13.9h0Z"/>
      <path class="st1" d="M683.5,553.6c7.5,0,12.5,4.5,12.6,11.4,0,8.1-6.1,15.6-13,15.6s-13.5-5.4-13.6-12.8c0-7.3,6.7-14.2,13.9-14.3h0Z"/>
      <path class="st1" d="M590.5,573.2c0,7.4-5.1,13.8-11.3,13.9-6.4,0-12-5.4-12-11.8s5.5-13.1,12.1-13.1,11.1,4.5,11.1,11h.1Z"/>
      <path class="st1" d="M201.2,573.7c0,7.6-5.1,13.3-11.6,13.3s-11.5-5-11.5-12,5.2-12.6,11.7-12.7c6.7,0,11.4,4.6,11.4,11.4h0Z"/>
      <path class="st1" d="M597.2,382.7c0,7.3-4.8,13.2-10.9,13.4-6.4.2-11.8-5.3-11.7-11.9,0-6.7,5.4-12.3,11.4-12.3s11.2,4.4,11.2,10.8Z"/>
      <path class="st1" d="M193.6,383.5c-.2,7.2-5,12.3-11.4,12.1-6.3-.3-11-5.2-10.9-11.4,0-6.7,5.3-12.1,11.7-12,6.6.1,10.8,4.6,10.6,11.3h0Z"/>
      <path class="st1" d="M422.6,374.4c0,21.4-17.3,38-39.8,38s-37.4-16.4-37.3-37.7c0-21.4,18.1-39.5,39.5-39.5s37.6,16.8,37.6,39.3h0ZM384,392.1c10.3.2,18-8,18-19.1s-7.7-18.1-17.8-18.3c-9.6-.2-18,9-18.1,20-.1,9.8,7.5,17.1,17.9,17.3h0Z"/>
      <path class="st1" d="M383.5,454.2c-8,0-13.6-5.3-13.6-13.1s5.4-13.6,13.1-13.6,14.7,5.8,14.8,12.9c.1,8-5.8,13.7-14.3,13.8h0Z"/>
    </g>
  </g>
  <g>
    <path class="st0" d="M939.1,646.1v-178.2h-91.9v178.2h-48v-357.5h48v133.8h91.9v-133.8h47.5v357.5h-47.5Z"/>
    <path class="st0" d="M1012.8,646.1v-357.5h153.5v45.4h-105.5v88.4h99v45.9h-99v132.3h108.6v45.4h-156.6Z"/>
    <path class="st0" d="M1232.4,468.4v177.7h-48v-357.5h70.2c10.8,0,22,1.3,33.8,3.8s22.6,7.2,32.6,13.9c9.9,6.7,18.1,15.9,24.5,27.5s9.6,26.5,9.6,44.7-5,43.9-15.1,57.1c-10.1,13.1-22.7,22.2-37.9,27.3l68.7,183.3h-51.5l-65.6-177.7h-21.3ZM1263.2,422.5c6.1,0,11.7-.7,16.9-2,5.2-1.3,9.8-3.8,13.9-7.3s7.2-8.2,9.6-13.9c2.4-5.7,3.5-13,3.5-21.7v-1c0-8.8-1.7-15.9-5-21.5-3.4-5.6-7.6-9.8-12.6-12.9-5-3-10.8-5.1-17.2-6.3-6.4-1.2-12.8-1.8-19.2-1.8h-20.7v88.4h30.8,0Z"/>
    <path class="st0" d="M1568.2,542.1c0,20.9-3.1,38-9.3,51.5-6.2,13.5-14.1,24.1-23.7,31.8s-20.1,13.1-31.6,16.2c-11.4,3-22.2,4.5-32.3,4.5h-79.3v-357.5h70.2c10.8,0,21.8,1.2,33.1,3.5,11.3,2.4,21.5,6.7,30.5,13.1,9.1,6.4,16.6,15.3,22.5,26.8,5.9,11.4,8.8,26.3,8.8,44.4s-2.8,32.7-8.3,43.4c-5.6,10.8-12.7,19.4-21.5,25.8,10.8,9.8,20.3,22.9,28.5,39.4s12.4,35.5,12.4,57.1h0ZM1509.6,377.5c0-9.1-1.3-16.5-4-22.2s-6.3-10.2-10.9-13.4c-4.5-3.2-9.8-5.3-15.7-6.3-5.9-1-12-1.5-18.4-1.5h-20.7v88.4h22.2c5.7,0,11.4-.7,17.2-2,5.7-1.3,10.9-3.7,15.4-7.1s8.2-8,10.9-13.9c2.7-5.9,4-13.2,4-22ZM1520.2,543.6c0-11.8-1.5-22.3-4.5-31.6s-7-17.2-11.9-23.7c-4.9-6.6-10.2-11.6-15.9-15.1-5.7-3.5-11.3-5.3-16.7-5.3h-31.3v132.8h27.8c15.8,0,28.5-4.5,38.1-13.4s14.4-23.5,14.4-43.7Z"/>
    <path class="st0" d="M1688.4,285.6c18.8,0,34.6,3.3,47.2,9.8,12.6,6.6,22.8,14.7,30.5,24.5s13.2,20.5,16.4,32.3c3.2,11.8,4.8,22.9,4.8,33.3v261h-48v-178.7h-102.5v178.7h-48v-261c0-10.4,1.8-21.5,5.6-33.3,3.7-11.8,9.5-22.5,17.4-32.3s18.2-17.9,30.8-24.5c12.6-6.6,27.9-9.8,45.7-9.8h0ZM1636.9,422h102.5v-36.4c0-5.7-1-11.7-3-17.9-2-6.2-5.1-12-9.3-17.4-4.2-5.4-9.5-9.8-15.9-13.4-6.4-3.5-14-5.5-22.7-5.8-8.8.3-16.3,2.3-22.7,5.8-6.4,3.5-11.7,7.9-15.9,13.1-4.2,5.2-7.4,11-9.6,17.4s-3.3,12.5-3.3,18.2v36.4h0Z"/>
    <path class="st0" d="M1812.6,646.1v-357.5h48v311.5h89.9v45.9h-137.9Z"/>
    <path class="st0" d="M2193.8,646.1v-178.2h-91.9v178.2h-48v-357.5h48v133.8h91.9v-133.8h47.5v357.5h-47.5Z"/>
    <path class="st0" d="M2267.5,646.1v-357.5h153.5v45.4h-105.5v88.4h99v45.9h-99v132.3h108.6v45.4h-156.6Z"/>
    <path class="st0" d="M2537.1,285.6c18.8,0,34.6,3.3,47.2,9.8,12.6,6.6,22.8,14.7,30.5,24.5s13.2,20.5,16.4,32.3,4.8,22.9,4.8,33.3v261h-48v-178.7h-102.5v178.7h-48v-261c0-10.4,1.8-21.5,5.6-33.3,3.7-11.8,9.5-22.5,17.4-32.3s18.2-17.9,30.8-24.5,27.9-9.8,45.7-9.8h.1ZM2485.6,422h102.5v-36.4c0-5.7-1-11.7-3-17.9-2-6.2-5.1-12-9.3-17.4s-9.5-9.8-15.9-13.4c-6.4-3.5-14-5.5-22.7-5.8-8.8.3-16.3,2.3-22.7,5.8s-11.7,7.9-15.9,13.1-7.4,11-9.6,17.4c-2.2,6.4-3.3,12.5-3.3,18.2v36.4h-.1Z"/>
    <path class="st0" d="M2661.3,646.1v-357.5h48v311.5h89.9v45.9h-137.9Z"/>
    <path class="st0" d="M2887.1,334.1v312h-48v-312h-66.1v-45.4h180.3v45.4h-66.2Z"/>
    <path class="st0" d="M3108.7,646.1v-178.2h-91.9v178.2h-48v-357.5h48v133.8h91.9v-133.8h47.5v357.5h-47.5Z"/>
  </g>
  <g>
    <path class="st0" d="M1320.5,248.9c-44.6,0-65.7-30.9-65.9-64.4-.4-33.4,21.5-65.9,65.9-65.9s33.4,6.3,46.2,19l-10.8,10.1c-9.7-9.6-22.6-14.1-35.4-14.1-33.9,0-50.4,24.5-50.2,50.7.4,25.6,16.1,49.6,50.2,49.6s26.4-5.1,35.9-14.6l11,10.8c-12.8,12.6-29.6,18.8-46.9,18.8h0Z"/>
    <path class="st0" d="M1522.3,120.5h88.8v14.4h-73.3v39.5h70.2v14.6h-70.2v42.8h76.2v15h-91.7v-126.3Z"/>
    <path class="st0" d="M1759,121.1v-.5h19.1l37.9,59.9,38.8-59.9h19.1v.5l-49.8,74.5v51.3h-16.2v-51.3s-48.9-74.5-48.9-74.5Z"/>
    <path class="st0" d="M2041.8,232.3h68.8v14.6h-84.5v-126.3h15.7v111.7Z"/>
    <path class="st0" d="M2378.3,184.1c-.2,33-20.8,65.3-64.1,65.3s-64.3-32.1-64.3-65.3,24.5-65.7,64.4-65.7c42.8.2,64.1,32.3,63.9,65.7h.1ZM2314.4,132.8c-32.1,0-48.7,23.6-48.7,51.3s15.5,50.5,48.7,50.5,48.2-25.6,48.2-50.5c.2-25.6-15.2-50.9-48.2-51.3Z"/>
    <path class="st0" d="M2546.7,120.5l77.4,96.7v-96.7h15.5v126.3h-10.8l-77.6-96.4v96.4h-15.5v-126.3h11Z"/>
  </g>
</svg>