<?xml version="1.0" encoding="UTF-8"?>
<svg id="Layer_1" xmlns="http://www.w3.org/2000/svg" version="1.1" viewBox="0 0 338 276">
  <!-- Generator: Adobe Illustrator 29.3.1, SVG Export Plug-In . SVG Version: 2.1.0 Build 151)  -->
  <defs>
    <style>
      .st0 {
        fill: #eaeaea;
      }
    </style>
  </defs>
  <path class="st0" d="M149.3,61.4c5.3-1,10.1,2,11.3,7.3,9.3,3.2,24.9,3.1,28.3,14.5.7,2.5,1.2,6,1.4,8.6s-.3,3.7,0,4.9.6.7.8,1.6c3.4,13.4-2.8,31.7-1.5,46.5,1.1,12.6,10,24.3,8.7,36.6-.1,1.2-1.3,4.1-1.3,4.8s.6,1.4.7,2c1.5,8-1.2,18.6-2,26.8,0,.7.3,3-.4,3.2-1.2.4-.9-3.1-.8-3.9.3-4.8,1.5-10,1.9-14.9s.8-8.4,0-11.3-.7-1.5-1.1-1.7-6.4,2.2-7.4,2.5c-15.5,4.8-34.4,6.2-49.8.4s-4.5-1.7-4.6-2.3c0-.5.5-.9,1-.8,15.8,7.6,35.5,6.5,52,1.7,2.3-.7,6-2.5,8-2.9s1,0,1.5.2c4.1-11.5-3.7-22.4-6.5-33.2-3.1-12.4-.4-24.4.8-36.7s.7-10.5-.2-15.7l-1.8,8.2c-.6,1.8-1.2,3.5-1.8,5.3s-2.1,4-2.2,4.7.3,1,.2,1.5l-.9.2c-.4-.2-1-1.7-1.4-2.1s-.2-.2-.5-.2c-4.3,7.9-8,16.1-12.3,24.1s-11,18-19.4,25.3c-5.4,4.7-11.5,8.6-17.4,12.6.3,2.4.7,4.9.3,7.2v5.1c19.5,6.5,35.4,21.9,55,27.7,22.7,6.7,42.1-14.2,64.4-15.6s35.5,8.9,41,26.2c.3,1.1,1.9,4.8-.4,3.8-3.4-15.8-17.5-26.9-33.3-28.6-22-2.3-38.6,14.7-59.2,16.8-16.3,1.7-33.8-11.3-47.4-19.1s-26.8-14.2-40.2-13c-3.9.3-6.1,2.4-8.4,5.3-12.9,16.1-3.5,40.3,4.8,56.4s2.7,4.1,3.1,5.4.2.7,0,1c-.2.3-.4.3-.7.2s-2.6-4.3-3-5c-9.5-17.5-19.3-43.9-3.5-60.7-2.2.7-4.8,1.2-6.9-.1s-1.6-1.9-2.3-2.5-1.4-.9-1.5-.9c-.5-.1-3.4.3-4.4.2-3.2-.3-7.4-2.8-9.7-5-.4,0-1.8,3.7-2.7,1.3,1.8-1.9,2.8-4.4,2.6-7.1s-3.8-8.5-7.3-4.7-1,3.5-3.7,3.6c-4.1.2-8.1-4.2-12.3-4.5-4.5-.4-8.1,2.5-12.4,2.8,1.7,3.8,3.7,7.5,4,11.7s-.4,5.9-.4,8.8c1,.5,2.2.1,3.3.3,2,.4,2.7,3.3,3.9,4.6s1.9,1.3,2.9,2.4c3.2,3.6,3.1,6.3,8.6,3.2s6.8-7,11.7-5.2c6.3,2.3,13.8,9,15.6,15.6s1.2,15.1-.6,19.8-2.7,3.9-3.2,6.5c-1.5,7.9,3.9,14.9,12.1,14.7s2.5-.7,2.5.3-.6.6-.9.7c-8.9,2.1-15.9-6.2-15.1-14.7s.8-2.8.9-4.1-.1-3.5,0-5.2c.3-6.1,1-12.1,1.7-18.2s.8-1.7,0-3.3c-2.3-4.4-8.3-9-12.8-10.9-5.1-2.2-9,5.1-13.9,6.3s-5.8-3.5-8.5-5.9-1.2-.6-1.8-1.3c-1.2-1.3-1.8-4.1-3.8-4.3s-1,.2-1.6.2c-3.7-.2-1.8-4.6-1.6-6.9.3-3.8-.8-7.7-2.3-11.2s-1.8-3.6-2-3.8-2-.6-2.7-1c-4.5-2.5-4.3-8.9-1.5-12.6s3.4-2.7,5.5-4.2c9.1-6.2,21.5-17.7,32.9-10.4,2,1.3,3.5,3.6,5.4,4.5s5.5.9,8,2.9c7.5,6,3.7,17.2,10.3,23.5.3,0,.5,0,.7-.2.4-.5,1.2-4.1,1.4-5,2.5-10,3.2-21,10.5-29l-.5-8.5.5-15.9c-.2-.8-3-1.7-3.1-3.8,1.6-7.4,1.4-15.8,3.4-23.1,2.6-9.1,12.9-13.5,20.4-17.8l-.2-1.7,1-.4c1.4,5,3.7,9.8,4.8,14.9s0,3.3,1.1,4.3c.5,0,2-5.7,2.3-6.4,2.3-5.7,10.3-11.4,10.3-17.6s-1.7-1.7-2.4-2.3c-2.1-2-3.4-4-4.4-6.8s-.2-1.8-.6-2.5c-1-1.7-5.5-4-6-5.6s.3-1.4.8-2.3c1.2-2.2,1.3-4.1.4-6.5-1.8-4.7-5.7-2.7-6.6,1.4s0,5.1-1.3,6-2.5-.5-3.4-1.5c-1.9-2.2-5.5-8.8-8.2-9.6s-1.4,0-2.1-.4v-.9c.4-.2.8-.3,1.3-.3,3.8.1,7.4,7.1,9.6,9.8,3.1,3.9,2.3.4,2.6-2.1s1-4.5,2.7-5.6c5.6-3.6,8.8,5,6.8,9.4s-1.3,1.4-1.1,2.1l4.7,3.7c0-.4-.3-.8-.3-1.3.2-9,2.9-15.3-1.8-23.9s-13.2-12.3-22.5-10.4-20,9.2-19.2,18.2,1.8,5.6,3.2,5.8,6.2-2.5,7.6-3.6c5.3-4.3,7.5-10.7,8.9-17.1,3.6-2.3,3,2.9,1.8,4.9s-1.8,1.2-2.2,1.6-1.4,3.7-2,4.7c-3.1,5.7-8,9.5-14.3,11.1,0,6.8,6.6,12.2,5.9,19.1s-2.1,4,1.3,3.6,2.5-1.1,3.9-1.2c.4.7-.7,1.4-.7,1.7,1.7,2.4,3.9,8.2,7.2,8.7s5.1-1.3,6.8-2.4c5.1-3.3,8.2-8.8,9.1-14.8s-.3-2.1,1.1-1.5c.5,7-4.5,14.5-10.5,18s-4.3,2.1-5.9,2.1c-4.5,0-7-6.5-9.1-9.6-1.2-.1-4.5.7-5-.6s.6-3.6.6-5.3c0-5.2-5.1-10.5-5.9-15.7s0-2.5,0-3-1.8-2.4-2.1-3.1c-3.4-7.2,2-14,7.7-18s9.7-5.2,15.1-5.6c.4-5.3,7.2-5.3,10.5-2.6s3.2,3.2,1.4,3.3-1.1-1.3-1.7-1.9c-2.3-2.4-8.5-3.1-9.1,1.2,4.4,0,8.8,1.6,12.5,3.8,3.8-5.5,3.2-11.5-3.5-14.1s-14.5,1.3-13.6,9.7l-.3.4h-.8c-1.8-10.6,8.9-15.5,17.4-10.2s5.5,10,1.8,15c4,3.5,7,8.4,8.2,13.6,1.9,8.5-2.8,17.8,1.3,26.1ZM122.8,27.1c.5-1.3,1.1-2.5.9-4-.8.7-.9,2.3-1.1,3.3s-.3.8.1.7ZM154.5,88.4c3.9-7.7,10.4-26.1-4.3-25.8l2.7,3.1h.4c1.1-1.9,1.5.1,1.6,1.3.6,6.3-3.9,10.2-7.3,14.7s-1.1,1.3-1,1.5c1.2,0,2.4,1,3.4,1.7s4.1,3.8,4.4,3.5ZM183.3,116.8c1.1-2.8,2.4-5.5,3.3-8.4,2.3-7.3,3.1-16.8,1.1-24.3-3.1-11.2-18.1-10.8-27.1-14,.1,4.7-1.1,9.4-2.7,13.7s-2.6,6.1-3.2,6.5-1-.5-1.4-1c-1.2-1.2-5.7-5.3-7.2-5.1s-.6.3-.8.6c-1.4,2-1.8,6.7-3.3,9,.3,3.4-1.2,7-1.9,10.4-1.5,8.4-1.7,16.5,0,24.9s2,6.6,1.7,6.9c-1.5.3-1.9-2.4-2.2-3.6-3.5-12-2.2-25.2,1.3-37.1-.5-3.3-3.7-5-6.1-6.9-.2,0-1.7,1-2,1.3-.8.9-.5,2-1.9,1.8l-.8-12.5c-4.9,2.7-10.5,5.7-13.5,10.7s-2.2,6-2.7,9.4c-.9,5.7-1.4,11.5-2.2,17.2.4,2.1,5.7,3.2,7.6,3-1.7-7-2.3-14.4-1.7-21.5l1.1.2c-.3,12,1.1,23.3,6.3,34.2s3.5,6,4.6,10c1.8,6.6,2.2,13.4,2.7,20.2,1.6-1.3,2.8-3,4-4.7,3.2-4.5,6-10.2,9.5-14.4s4-3.6,5.6-5.6c2.4-2.9,2.8-7.7,3.8-11.3,1.7-5.7,4.2-11.3,5.7-17.1-1.1,0-1.6-1-1.6-2,2.9-10.5,5.9-22.5,15.5-28.8.6,0,.7.6.6,1s-2.7,2.1-3.2,2.6c-3.9,3.9-6.7,9.7-8.5,14.8s-3.2,10-2.9,10.7,3,.5,3.9.6c5.9.6,12.2,2.6,16.7,6.5s.9,1.1,1.4,1.6.2.2.5.2ZM138.8,90.1c-.4-4.7-2.5-9.1-4.1-13.5l-2.9,1.8c0,3.4-.3,6.9.4,10.3l2.7-1.4,3.9,2.8ZM101.2,191.6c3.6.2,7-2.6,10.4-3,2-.3,4.3.2,6.3,0,4.9-.6,9.8-7.2,13.5-10.1,6.3-5,13.1-8.6,19.2-14.2,14.4-13.2,20.6-30.8,29.9-47.5.1-.3,0-.5,0-.8s-2.5-1.9-3-2.2c-4.4-2.6-9.8-3.8-14.8-3.9-2.1,6.8-5,13.4-6.8,20.4s-.7,3.3-1,4.9-.8,1.2,0,1.1,3.5-1.9,3.6-.4-1.3.8-1.8.9-.7.5-1.1.5c-.6.1-1.6,0-1.9.1s-.8,1.3-1.1,1.6c-1.7,1.8-4,3.7-5.6,5.6-4.3,5.4-7.4,12.3-12,17.6-.6.7-2.2,1.9-2.5,2.3s-.4,1.4-.7,2.1c-1.2,2.3-7.1,9.4-9.3,10.5-6.8,3.2-15.2-1.9-21.5,3.6-.2.2-2.7,2.6-1.4,2.6l6.9-3,.7.2v1c-3.9,1.9-8.4,2.8-11.3,6.3.6,1.4,2.6.3,3.6-.2,1.5-.8,6.9-5.5,8.4-4.4s-1.9,1.7-2.5,2c-2.5,1.3-4.5,3.8-7.3,4.5-.4.5,1.5,2,1.9,1.8,1.3-1.5,3-2.6,4.7-3.6s3.4-1.9,4-2c.9-.2,1.4.5.6,1.1-2.1,1.6-6,2.3-7.7,4.8ZM119.6,120.9l-4.7-.7c-.6,7.8-.7,15.6-.2,23.4.2.2,3.6-2.8,4.7-2l.2.7c-7,2.8-10,9.4-12,16.2s-2.7,12.9-4.3,19.2c3-1.2,6.2-.9,9.4-.9,6.5-9.5,13-18.9,15-30.5s.2-2.2.3-3.2.4-.6.4-.9c0-1.6-2-4.4-2.7-5.8-2.5-5-4.7-9.9-6.1-15.4ZM114.2,176.9h4.6c.3,0,1.8-.5,2.2-.7,1.9-.8,5.8-5.3,7.2-7s1.9-2.6,2.4-3.8c1.2-3.3-.2-14.6-1-18.4s0-1.4-.6-1.6c-.6,7.1-3.7,13.6-7.1,19.7l-7.5,11.8ZM42.1,168c-.2,1.1.1,2.5,0,3.7l-1.2.2c-1.1-4.7,1.5-9.1,4.9-12.1s16.9-10.2,21.3-10.6,14.4,4.3,19.2,8c8.3,6.3,2.9,18.7,11.1,24.9l2.4-2.7c-5.9-5.5-3.6-15.5-8.3-21.6s-5.9-2.7-9.7-4.7-2.6-2.4-4-3.6c-10.8-8.3-22.4,2.3-31.3,8.5-3.4,2.4-7,3.4-8.1,7.9s2,9.3,7.7,7.9c4.4-1,6.6-3.1,11.7-2.5s7.6,4.4,11.2,4.3,1.6-1.4,2.5-2.6c2.3-2.9,5.3-3.4,7.8-.5s2.6,6.6,1.7,9.9c2.1,2.9,10.2,6.7,13.3,4.6s1.2-1.7,1.9-2.1c.2-.4,1.7-.9,1.5-1.3s-1-.5-1.3-.8c-8-6.9-3.6-16.3-9.1-23.1-2.1-2.5-10.2-7.3-13.4-8.4s-7-1.4-10.9.2c-6.2,2.6-19.9,8.9-20.9,16.2ZM131.3,180.5c-.4-.1-.5.2-.7.4-1.8,1.4-3.5,3.6-5.3,5.1l-4.4,3.1c3.5.2,7,1.2,10.4,2.1v-10.6ZM91,238.2c.4-.1.6-.7.8-1,1.9-4,1.8-9.1,1.9-13.5l-.7-6.5c-.5,0-.4.5-.5.8-.4,2.6-.7,5.7-.9,8.3-.3,4-.5,8-.5,11.9Z"/>
  <path class="st0" d="M397.3,249.1c-.6.9-2.6-1.6-3.1-2-12.9-9.9-47.2-7.5-63.3-7.7-25.3-.2-48.8,1.6-73.8,6-32.5,5.7-71.2,19.6-103.7,17.4-.9,0-4-.3-2.1-1.4,3.3,0,6.6.3,9.9.2,31.1-.5,63.1-11.7,93.8-17.2,34.6-6.2,67.3-7.3,102.4-6.2,10.8.3,29.6,1,38.1,8.3s2.2,1.9,1.8,2.6Z"/>
  <path class="st0" d="M133.6,194.9c.8,2.3-1.6.8-2.7.4-33.4-11.3-31.5,25-22.6,45.6s13.1,23.9,24.2,19.8,5.4-11.3,4.7-16.8-3.9-14.4-4.2-20.4.1-1.8,1.1-1c.9,5.4,2.5,10.7,3.6,16.1,1.7,9.1,4.3,25.1-9.9,23.9-6.3-.5-10.6-5.3-14.2-10-9-12-15.1-33.9-10.4-48.4,4.7-14.5,18.4-14.3,30.5-9.2Z"/>
  <path class="st0" d="M-4.6,235.4c28.2-1.4,56.3,8.4,84.4,7.5.8,0,1.6-.4,2.3-.2s.5.8,0,1.1-3.3.5-4,.5c-21,1.1-45.5-5.8-67-7.3-15.7-1.1-29.9-1.1-42.6,9s-1.3,1.2-1.7,0c7.1-7.7,18.4-10,28.6-10.5Z"/>
  <path class="st0" d="M88.2,179.7c-4.7-16.1-27.6-32.1-39.9-13.4s-1,2-1.1,2.1c-.5.3-1.2,0-1.1-.7s2.7-4.4,3.5-5.3c12.2-13.4,31.4-1.1,37.8,11.9s1.9,4.4,1.9,5-.1.5-.4.5h-.8Z"/>
</svg>